<?xml version="1.0" encoding="utf-8"?>
<svg xmlns="http://www.w3.org/2000/svg" version="1.1" width="341px" height="342px" style="shape-rendering:geometricPrecision; text-rendering:geometricPrecision; image-rendering:optimizeQuality; fill-rule:evenodd; clip-rule:evenodd">
  <g>
    <path fill="#87611c" stroke="#87611c" stroke-width="0.5" d="M 186.28,217.67 c 0.33,0.43 0.66,0.85 0.99,1.26 c 0.1,0.71 0.48,1.2 1.14,1.49 c -3.17,2.28 -6.42,2.38 -9.74,0.32 c -4.5,-3.33 -8.16,-6.52 -14.17,-6.29 c -22.66,0.49 -25.06,34.17 -2.5,38.03 c 3.9,0.64 7.52,-0.09 10.85,-2.17 c 7.96,-6.37 16.07,-9.11 19.37,3.66 c 0.61,3.49 0.82,7 0.63,10.53 c -0.48,8.49 -1.36,16.95 -2.64,25.36 c -2.2,-0.59 -0.78,2.73 -2.25,3.32 c -0.64,-0.25 -1.29,-0.31 -1.97,-0.2 c 1.81,-9.74 2.82,-19.57 3.02,-29.49 c 0.44,-16.7 -3.45,-18.73 -16.15,-9.33 c -23.64,10.13 -41.43,-22.14 -21.12,-38.86 c 15.77,-12.68 28.49,6.74 34.54,2.37 Z"/>
  </g>
  <g>
    <path fill="#f15d56" d="M 99.98,49.23 c 3.83,-0.39 7.67,-0.55 11.52,-0.49 c 24.67,-0.04 49.34,0.01 73.98,0.16 c 0.44,0.44 0.57,0.96 0.41,1.56 c -1.97,10.59 -2.98,21.27 -3.05,32.04 c -0.09,3.28 0.39,6.48 1.45,9.58 c 2.28,5.37 7.61,7.47 12.69,4.2 c 2.57,-2.19 5.35,-4.06 8.34,-5.61 c 6.55,-1.89 12.4,-0.57 17.55,3.95 c 5.23,5.2 7.12,11.42 5.68,18.67 c -2.31,9.97 -11.14,16.53 -21.45,14.33 c 0.31,-0.48 0.77,-0.73 1.37,-0.75 c 1.84,0.23 12.51,-0.84 9.66,-4.57 c -1.43,-0.12 -2.83,-0.42 -4.2,-0.9 c -0.94,-0.5 -1.8,-1.08 -2.59,-1.74 c 0.29,-0.3 0.64,-0.5 1.05,-0.6 c 3.22,1.41 6.19,1.02 8.89,-1.18 c 0.92,-1.01 1.14,-3.04 -0.76,-2.9 c -6.41,2.43 -5.84,0.8 -9.58,-3.15 c 1.34,-1.84 3.8,1.66 4.87,-0.51 c 0.2,-1.92 0.38,-3.84 0.51,-5.76 c 0.46,-0.74 0.95,-3.57 1.91,-3.32 c 0.65,1.93 1,3.94 1.04,6.03 c 1.23,1.06 2.25,0.88 3.06,-0.54 c 0.7,-2.55 -0.53,-7.51 -4.1,-5.49 c -0.14,-0.72 0.1,-1.27 0.72,-1.65 c 1.54,0.03 3.07,0.19 4.59,0.49 c 3.84,-3.04 -6.6,-9.71 -9.93,-8.95 c -2.55,1.81 -3.13,-1.07 -5.91,0.1 c -1.28,0.83 -2.67,1.32 -4.19,1.48 c -3.4,1.9 -6.94,5.36 -11.01,5.5 c -3.57,-0.23 -6.38,-1.8 -8.42,-4.73 c -0.82,-1.92 -1.61,-3.85 -2.36,-5.81 c -0.72,-6.04 -0.75,-12.1 -0.09,-18.16 c 0.74,-4.98 1.28,-9.98 1.6,-15.01 c 0.28,-5.52 -0.84,-5.26 -5.74,-5.63 c -24.67,0.06 -49.34,0.11 -74.01,0.17 c -1.29,0.18 -2.46,-0.09 -3.5,-0.81 Z"/>
  </g>
  <g>
    <path fill="#a7ae5a" d="M 189.77,48.79 c 0.44,-0.02 0.88,-0.05 1.32,-0.08 c -1.51,1.75 -0.13,4.16 -0.79,6.28 c -0.44,1.53 -0.86,3.06 -1.26,4.6 c -0.13,3.99 -0.49,7.95 -1.05,11.9 c -0.13,3.67 -0.27,7.34 -0.43,11.01 c 0.23,2.72 0.62,5.4 1.17,8.06 c 1.86,2.2 3.98,2.54 6.39,1.02 c 1.78,-1.96 3.87,-3.52 6.26,-4.67 c 2.73,-1.01 5.52,-1.79 8.36,-2.33 c 3.48,-0.03 6.27,1.11 9.57,1.89 c 2.27,1.31 4.48,2.72 6.62,4.25 c 2.95,2.84 5.15,6.17 6.62,10 c 0.72,2.88 1.21,5.81 1.46,8.77 c -0.62,2.58 -1.08,5.18 -1.4,7.82 c -0.72,1.56 -1.47,3.11 -2.26,4.64 c -0.93,1.08 -1.77,2.23 -2.51,3.44 c -1.29,1.29 -2.63,2.52 -4.02,3.7 c -1.84,0.86 -3.67,1.74 -5.49,2.64 c -1.63,0.34 -3.23,0.74 -4.83,1.2 c -1.67,-0.01 -3.34,0.01 -5.01,0.05 c -2.14,-0.59 -4.28,-1.17 -6.41,-1.75 c -2.85,-1.89 -5.7,-3.77 -8.55,-5.62 c -1.89,-0.22 -3.48,0.39 -4.76,1.85 c -0.62,3.31 -1.03,6.65 -1.25,10.04 c 0.17,3.67 0.35,7.34 0.53,11.01 c 0.64,2.32 0.72,4.65 0.24,7 c 0.96,4.5 1.86,9.02 2.71,13.56 c -2.04,0.55 -2.04,-1.8 -2.44,-3.11 c -0.31,-2.55 -0.59,-5.11 -0.84,-7.68 c -0.98,-7.9 -1.51,-15.82 -1.61,-23.78 c 0.07,-3.24 0.79,-6.31 2.18,-9.21 c 1.92,-2.17 4.14,-2.56 6.67,-1.17 c 4.4,4.92 9.9,7.41 16.49,7.45 c 29.39,-2.22 27.24,-46.35 -2.79,-45.27 c -4.15,0.56 -7.78,2.24 -10.89,5.05 c -0.46,0.72 -1.05,1.27 -1.77,1.66 c -3.25,3.13 -7.42,1.25 -8.72,-2.67 c -2.22,-8.09 -0.52,-16.62 -0.15,-24.84 c 0.56,-5.63 1.44,-11.19 2.64,-16.71 Z"/>
  </g>
  <g>
    <path fill="#92c65a" d="M 309.97,149.99 c 0,0.33 0,0.66 0.01,0.98 c -0.56,0.36 -0.79,0.89 -0.7,1.57 c 0.07,4.64 0.01,9.28 -0.16,13.92 c 0.11,0.44 0.39,0.62 0.84,0.54 c -0.01,1.04 -0.12,2.07 -0.32,3.09 c -0.5,-0.3 -1.04,-0.52 -1.61,-0.66 c -9.38,-1.47 -18.82,-2.45 -28.31,-2.94 c -5.54,-0.02 -11.79,-0.32 -16.33,3.39 c -2.91,2.97 -3.48,6.34 -1.69,10.12 c 4.58,6.76 9.07,10.26 7.11,19.47 c -2.95,8.78 -9.06,13.54 -18.31,14.27 c -6.28,0.1 -11.45,-2.24 -15.51,-7.03 c 0.05,-0.5 0.26,-0.93 0.62,-1.28 c 1.88,0.68 1.85,0.6 2.99,-1.08 c 1.58,0.73 3.48,-0.23 1.7,-2.03 c -0.1,-0.92 -0.22,-1.85 -0.35,-2.77 c -0.72,-0.52 -0.79,-1.09 -0.22,-1.69 c 3.16,0.48 5.41,-1.86 3.7,-4.87 c -1.53,-1.38 -3.06,-1.38 -4.59,0 c -1.13,-1 -1.01,-1.82 0.33,-2.48 c 1.89,-0.29 3.74,-0.73 5.54,-1.33 c 0.62,0 1.22,0.14 1.78,0.42 c 1.65,-0.52 1.39,0.14 1.49,1.86 c -0.91,2.38 -0.64,5.06 -1.86,7.21 c -0.55,2.37 4.32,1.06 5.43,1.43 c 3.73,-0.91 2.26,-5.22 3.24,-8.05 c 1.04,-0.87 2.02,-1.8 2.96,-2.81 c 1.51,0.5 3,1.13 4.46,1.89 c 2.22,3.61 0.94,6.07 -1.99,8.59 c -1.18,3.63 -1.1,5.21 -4.21,7.64 c -2.25,1.14 -4.03,0.21 -5.72,2.46 c -1.46,-0.97 -3.06,-1.65 -4.81,-2.05 c -0.6,0.71 -1.3,1.3 -2.1,1.78 c 1.87,1.33 3.9,2.37 6.1,3.1 c 6.45,0.34 17.66,-7.04 17.64,-14.15 c 0.5,-10.04 -1.31,-9.35 -6.5,-16.44 c -1.69,-2.62 -1.14,-2.94 -0.8,-5.58 c -2.67,-9.69 11.16,-11.58 17.69,-12.29 c 5.98,0.91 12.14,0.88 17.99,2.62 c 1.32,-0.26 2.66,-0.45 4,-0.58 c 1.6,0.07 3.5,1.12 4.99,0.2 c 2.16,1.29 3.45,0.67 3.86,-1.86 c -0.46,-4.34 -0.64,-8.71 -0.55,-13.1 c 1.92,-4.62 -0.18,-8.45 0.92,-12.97 c -0.32,-8.68 -0.35,-17.36 -0.09,-26.04 c 0.32,0.62 0.46,1.28 0.41,1.99 c -0.01,11.05 -0.02,22.1 -0.03,33.15 c -0.13,1.02 0.19,1.81 0.96,2.39 Z M 256.13,194.96 c 1.25,5.01 8.07,2.4 4.96,-2.52 c -2.78,-1.39 -4.44,-0.55 -4.96,2.52 Z M 242.7,202.01 c 2.34,6.52 11.32,6.97 14.86,1.01 c 0.78,-1.97 0.15,-2.87 -1.9,-2.7 c -5.61,5.41 -5.72,4.41 -11.28,0.04 c -1.15,-0.09 -1.71,0.46 -1.68,1.65 Z"/>
  </g>
  <g>
    <path fill="#f6c73e" d="M 192.22,253.97 c 0.75,0.3 1.2,0.87 1.35,1.69 c 0.31,1.69 0.69,3.37 1.15,5.03 c -0.52,2.57 -0.72,5.17 -0.6,7.81 c -0.19,1.03 -0.49,2.03 -0.91,3 c -0.04,2.67 -0.07,5.34 -0.1,8.02 c -0.41,1.61 -0.62,3.25 -0.62,4.92 c -0.33,2.45 -2.7,6.05 -0.21,7.96 c 4.4,0.2 8.81,0.35 13.22,0.44 c 22.02,-0.03 44.02,-0.04 66.01,-0.03 c 1.79,-0.84 3.68,-1.18 5.66,-1 c 0.7,-0.27 1.33,-0.67 1.88,-1.2 c 1.99,0.14 3.71,-0.47 5.13,-1.84 c 2.32,-0.13 2.66,-0.03 4.04,-2.01 c 2.15,-1.19 4.27,-2.43 6.36,-3.72 c 2.15,-1.68 3.03,-3.9 5.87,-4.58 c -8.82,10.59 -20.14,15.73 -33.95,15.43 c -25.01,0.01 -50.01,0.03 -75.01,0.06 c -2.48,0.32 -1.36,-2.76 -1.28,-4.09 c 1.28,-8.41 2.16,-16.87 2.64,-25.36 c 0.19,-3.53 -0.02,-7.04 -0.63,-10.53 Z"/>
  </g>
  <g>
    <path fill="#eef8fb" d="M 81.92,289.51 c 6.57,4.31 13.76,6.8 21.58,7.48 c 27.52,0.13 55.04,0.18 82.57,0.16 c -0.09,0.36 -0.17,0.71 -0.25,1.07 c -1.95,-0.11 -0.64,1.62 -2.18,1.63 c -0.63,-0.43 -1.31,-0.58 -2.05,-0.43 c -0.53,-0.72 -1.24,-1 -2.12,-0.82 c -0.49,0.35 -0.96,0.68 -1.42,0.99 c -6,-0.79 -12.75,0.62 -18.81,0.71 c -19.96,-1.53 -40.07,1.31 -59.83,-2.43 c -6.45,-1.04 -12.35,-3.43 -17.72,-7.16 c -0.21,-0.43 -0.14,-0.83 0.23,-1.2 Z"/>
  </g>
  <g>
    <path fill="#de5454" d="M 65.79,84.03 c 0.63,0.3 0.88,0.79 0.75,1.49 c -0.41,24.33 -0.61,48.66 -0.61,73 c 0.01,2.25 0.36,4.44 1.04,6.58 c 0.86,1.2 2.02,2.01 3.47,2.43 c 1.66,0.51 3.34,0.88 5.05,1.13 c 7.63,1.05 15.31,1.66 23.01,1.83 c 1.71,-0.02 3.4,-0.19 5.08,-0.51 c 0.54,-0.11 0.96,0.05 1.27,0.47 c -0.33,0.49 -0.79,0.76 -1.4,0.79 c -5.32,-0.01 -10.63,0.05 -15.95,0.17 c -0.6,-0.08 -1.07,0.11 -1.42,0.59 c -7.09,-0.46 -14.1,-1.47 -21.03,-3.02 c 0.11,-25.49 0.13,-50.98 0.07,-76.48 c -0.01,-2.84 0.22,-5.67 0.67,-8.47 Z"/>
  </g>
  <g>
    <path fill="#f4cb41" d="M 200.83,171.54 c 1.36,0.23 2.72,0.43 4.08,0.6 c -1.02,0.98 -10.15,1.87 -12.04,2.24 c -0.94,0.78 -1.4,1.81 -1.37,3.08 c 0.99,6.63 1.76,13.3 2.3,20.03 c -0.14,4.29 0.89,8.91 -0.55,13.03 c 0.08,0.61 0.16,1.21 0.25,1.81 c -0.93,1.79 -1.32,3.68 -1.17,5.68 c -0.91,0.83 -1.6,1.82 -2.08,2.96 c -1.44,0.75 -2.89,1.51 -4.33,2.28 c -1.73,-0.04 -3.46,0.01 -5.19,0.16 c -1.7,-0.93 -3.39,-1.87 -5.08,-2.82 c -7.88,-8.04 -19.74,-6.04 -25.49,3.26 c -1.06,2.5 -1.97,5.04 -2.72,7.64 c 0.17,1.33 0.17,2.67 -0.01,4.01 c 0.59,1.97 1.1,3.96 1.52,5.96 c 1.08,1.33 2.04,2.74 2.88,4.24 c 0.83,0.81 1.65,1.64 2.47,2.46 c 1.38,0.72 2.72,1.51 4.02,2.36 c 1.75,0.42 3.5,0.75 5.26,0.99 c -0.55,0.28 -1.07,0.61 -1.58,0.97 c -22.56,-3.86 -20.16,-37.54 2.5,-38.03 c 6.01,-0.23 9.67,2.96 14.17,6.29 c 3.32,2.06 6.57,1.96 9.74,-0.32 c 4.15,-3.45 4.11,-9.99 4.4,-14.92 c -0.45,-10.98 -1.46,-21.92 -3.02,-32.81 c 3.67,-0.45 7.35,-0.83 11.04,-1.15 Z"/>
  </g>
  <g>
    <path fill="#926327" d="M 310.19,173.11 c 1.09,-0.08 2.19,-0.12 3.28,-0.12 c 0.05,14.16 0.18,28.29 0.4,42.4 c -0.24,0.34 -0.45,0.7 -0.63,1.07 c 0.95,0.65 1.01,1.39 0.2,2.2 c 0.24,11.61 0.25,23.22 0.01,34.84 c -0.1,2.3 -0.35,4.58 -0.76,6.84 c -3.22,15.59 -12.06,26.67 -26.52,33.25 c -0.38,0.15 -0.77,0.29 -1.15,0.44 c -0.23,-1.49 0.46,-2.27 2.06,-2.34 c 2.19,-1.12 4.3,-2.38 6.33,-3.78 c 2.85,-2.82 5.75,-5.59 8.72,-8.29 c 1.51,-2.19 3.03,-4.38 4.55,-6.56 c 1.82,-3.76 3.34,-7.63 4.55,-11.63 c 0.67,-3.95 1.03,-7.92 1.08,-11.93 c 0.03,-23.65 0.06,-47.3 0.08,-70.95 c -0.13,-1.74 0.45,-5.25 -2.45,-4.56 c 0.08,-0.3 0.17,-0.59 0.25,-0.88 Z"/>
  </g>
  <g>
    <path fill="#9c6008" d="M 309.94,173.99 c 2.9,-0.69 2.32,2.82 2.45,4.56 c -0.02,23.65 -0.05,47.3 -0.08,70.95 c -0.05,4.01 -0.41,7.98 -1.08,11.93 c -1.21,4 -2.73,7.87 -4.55,11.63 c -1.52,2.18 -3.04,4.37 -4.55,6.56 c -2.97,2.7 -5.87,5.47 -8.72,8.29 c -2.03,1.4 -4.14,2.66 -6.33,3.78 c -1.6,0.07 -2.29,0.85 -2.06,2.34 c -3.55,1.36 -7.2,2.3 -10.96,2.83 c -0.65,-0.81 -1.49,-1.15 -2.53,-1.03 c -8.67,0.16 -17.35,0.21 -26.03,0.13 c -6.11,1.12 -11.91,-0.72 -18.01,0.35 c -5.32,-0.38 -10.65,-0.47 -15.99,-0.3 c -1.01,0.03 -2.01,0.15 -3,0.36 c -5.99,-0.39 -11.99,-0.55 -18,-0.45 c -1.86,0.32 -1.49,-1.77 -2.54,-2.74 c 1.47,-0.59 0.05,-3.91 2.25,-3.32 c -0.08,1.33 -1.2,4.41 1.28,4.09 c 25,-0.03 50,-0.05 75.01,-0.06 c 13.81,0.3 25.13,-4.84 33.95,-15.43 c 5.42,-6.71 8.53,-14.37 9.33,-22.97 c 0.22,-26.82 0.29,-53.65 0.22,-80.48 c -0.02,-0.34 -0.04,-0.68 -0.06,-1.02 Z"/>
  </g>
  <g>
    <path fill="#fdf7e6" d="M 285.02,294.03 c 0.38,-0.15 0.77,-0.29 1.15,-0.44 c 0.46,0.17 0.87,0.4 1.24,0.7 c -7.08,3.81 -15.06,4.59 -22.95,5.26 c -22.99,0.09 -45.99,0.22 -68.99,0.41 c -3.77,-0.18 -6.35,-0.01 -9.65,-1.74 c 0.08,-0.36 0.16,-0.71 0.25,-1.07 c 29.33,0.02 58.66,-0.08 87.99,-0.29 c 3.76,-0.53 7.41,-1.47 10.96,-2.83 Z"/>
  </g>
  <g>
    <path fill="#dfd249" d="M 310.19,173.11 c -0.08,0.29 -0.17,0.58 -0.25,0.88 c 0.02,0.34 0.04,0.68 0.06,1.02 c -0.83,-0.4 -1.68,-0.74 -2.56,-1.01 c -3.12,-0.42 -6.27,-0.58 -9.45,-0.49 c -0.51,-0.25 -1.02,-0.52 -1.52,-0.8 c -1.04,-0.12 -2.07,-0.29 -3.1,-0.51 c -2.97,-0.13 -5.93,-0.35 -8.88,-0.64 c -3.32,-0.11 -6.66,-0.15 -9.99,-0.12 c -1.64,0.34 -3.29,0.52 -4.96,0.53 c -2.9,1.07 -3.96,3.1 -3.19,6.1 c 2.24,2.81 4.26,5.8 6.05,8.95 c 0.51,1.83 1.07,3.65 1.68,5.45 c -0.11,2.01 -0.12,4.01 -0.03,6.01 c -0.83,2.07 -1.46,4.2 -1.9,6.39 c -1.92,3.22 -4.22,6.16 -6.88,8.8 c -2.37,1.35 -4.82,2.55 -7.35,3.6 c -1.49,0.28 -2.97,0.53 -4.46,0.77 c -0.47,-0.16 -0.63,-0.47 -0.46,-0.94 c 9.02,-1.55 15.25,-6.56 18.68,-15.04 c 1.86,-5.77 1.31,-11.29 -1.67,-16.57 c -2.61,-3.98 -9.24,-8.97 -3.59,-13.52 c 4.33,-2.81 10.18,-1.86 15.08,-1.98 c 9.6,0.67 19.17,1.71 28.69,3.12 Z"/>
  </g>
  <g>
    <path fill="#e1d54c" d="M 247,217.1 c 0.15,0.46 -0.01,0.77 -0.47,0.93 c -1.49,-0.26 -2.98,-0.5 -4.47,-0.71 c -1.81,-0.85 -3.62,-1.68 -5.45,-2.48 c -1.61,-1.31 -3.21,-2.62 -4.81,-3.95 c -1.55,-1.92 -2.86,-4.01 -3.91,-6.25 c -0.52,-2.4 -1.14,-4.78 -1.86,-7.14 c -0.69,-4.02 0.44,-7.46 1.84,-11.14 c 1.84,-2.99 3.72,-5.92 5.64,-8.79 c 0.33,-1.39 0.02,-2.61 -0.91,-3.66 c -1.03,-0.67 -2.07,-1.31 -3.12,-1.92 c -1.66,-0.14 -3.32,-0.31 -4.98,-0.51 c -3.67,0.02 -7.34,-0.02 -11,-0.11 c -2.84,0.43 -5.7,0.69 -8.59,0.77 c -1.36,-0.17 -2.72,-0.37 -4.08,-0.6 c 8.17,-1.29 16.4,-1.8 24.67,-1.55 c 4.86,0.26 12.71,2.72 9.28,9.12 c -1.72,2.03 -3.35,4.14 -4.88,6.32 c -2.8,5.07 -3.36,10.38 -1.66,15.92 c 3.17,8.92 9.42,14.17 18.76,15.75 Z"/>
  </g>
  <g>
    <path fill="#89591e" d="M 185.99,292.98 c 0.68,-0.11 1.33,-0.05 1.97,0.2 c 1.05,0.97 0.68,3.06 2.54,2.74 c 6.01,-0.1 12.01,0.06 18,0.45 c 0.99,-0.21 1.99,-0.33 3,-0.36 c 5.34,-0.17 10.67,-0.08 15.99,0.3 c 6.1,-1.07 11.9,0.77 18.01,-0.35 c 8.68,0.08 17.36,0.03 26.03,-0.13 c 1.04,-0.12 1.88,0.22 2.53,1.03 c -29.33,0.21 -58.66,0.31 -87.99,0.29 c -0.07,-1.07 -0.13,-2.14 -0.2,-3.22 c 0.04,-0.31 0.08,-0.63 0.12,-0.95 Z"/>
  </g>
  <g>
    <path fill="#76683d" d="M 186.24,173.09 c 0.86,-0.04 1.72,-0.05 2.59,-0.01 c -0.49,0.69 -0.75,1.46 -0.79,2.3 c 0.62,3.35 0.93,6.74 0.91,10.15 c 1.7,7.9 2.28,15.88 1.72,23.95 c -0.09,3.53 -1.22,6.68 -3.4,9.45 c -0.33,-0.41 -0.66,-0.83 -0.99,-1.26 c 1.67,-2.08 2.56,-4.47 2.67,-7.16 c 0.28,-5.47 0.19,-10.93 -0.28,-16.39 c -0.6,-7.04 -1.41,-14.05 -2.43,-21.03 Z"/>
  </g>
  <g>
    <path fill="#9a6808" d="M 188.83,173.08 c 0.32,-0.13 0.64,-0.26 0.96,-0.39 c 1.56,10.89 2.57,21.83 3.02,32.81 c -0.29,4.93 -0.25,11.47 -4.4,14.92 c -0.66,-0.29 -1.04,-0.78 -1.14,-1.49 c 2.18,-2.77 3.31,-5.92 3.4,-9.45 c 0.56,-8.07 -0.02,-16.05 -1.72,-23.95 c 0.02,-3.41 -0.29,-6.8 -0.91,-10.15 c 0.04,-0.84 0.3,-1.61 0.79,-2.3 Z"/>
  </g>
  <g>
    <path fill="#fcd42f" stroke="#fcd42f" stroke-width="0.5" d="M 204.91,172.14 c 2.89,-0.08 5.75,-0.34 8.59,-0.77 c 3.66,0.09 7.33,0.13 11,0.11 c 1.66,0.2 3.32,0.37 4.98,0.51 c 1.05,0.61 2.09,1.25 3.12,1.92 c 0.93,1.05 1.24,2.27 0.91,3.66 c -1.92,2.87 -3.8,5.8 -5.64,8.79 c -1.4,3.68 -2.53,7.12 -1.84,11.14 c 0.72,2.36 1.34,4.74 1.86,7.14 c 1.05,2.24 2.36,4.33 3.91,6.25 c 1.6,1.33 3.2,2.64 4.81,3.95 c 1.83,0.8 3.64,1.63 5.45,2.48 c 1.49,0.21 2.98,0.45 4.47,0.71 c 0.46,-0.16 0.62,-0.47 0.47,-0.93 c 2,0.2 4,0.2 6,0 c -0.17,0.47 -0.01,0.78 0.46,0.94 c 1.49,-0.24 2.97,-0.49 4.46,-0.77 c 2.53,-1.05 4.98,-2.25 7.35,-3.6 c 2.66,-2.64 4.96,-5.58 6.88,-8.8 c 0.44,-2.19 1.07,-4.32 1.9,-6.39 c -0.09,-2 -0.08,-4 0.03,-6.01 c -0.61,-1.8 -1.17,-3.62 -1.68,-5.45 c -1.79,-3.15 -3.81,-6.14 -6.05,-8.95 c -0.77,-3 0.29,-5.03 3.19,-6.1 c 1.67,-0.01 3.32,-0.19 4.96,-0.53 c 3.33,-0.03 6.67,0.01 9.99,0.12 c 2.95,0.29 5.91,0.51 8.88,0.64 c 1.03,0.22 2.06,0.39 3.1,0.51 c 0.5,0.28 1.01,0.55 1.52,0.8 c 3.18,-0.09 6.33,0.07 9.45,0.49 c 0.88,0.27 1.73,0.61 2.56,1.01 c 0.07,26.83 0,53.66 -0.22,80.48 c -0.8,8.6 -3.91,16.26 -9.33,22.97 c -2.84,0.68 -3.72,2.9 -5.87,4.58 c -2.09,1.29 -4.21,2.53 -6.36,3.72 c -1.38,1.98 -1.72,1.88 -4.04,2.01 c -1.42,1.37 -3.14,1.98 -5.13,1.84 c -0.55,0.53 -1.18,0.93 -1.88,1.2 c -1.98,-0.18 -3.87,0.16 -5.66,1 c -21.99,-0.01 -43.99,0 -66.01,0.03 c -4.41,-0.09 -8.82,-0.24 -13.22,-0.44 c -2.49,-1.91 -0.12,-5.51 0.21,-7.96 c 0,-1.67 0.21,-3.31 0.62,-4.92 c 0.03,-2.68 0.06,-5.35 0.1,-8.02 c 0.42,-0.97 0.72,-1.97 0.91,-3 c -0.12,-2.64 0.08,-5.24 0.6,-7.81 c -0.46,-1.66 -0.84,-3.34 -1.15,-5.03 c -0.15,-0.82 -0.6,-1.39 -1.35,-1.69 c -3.3,-12.77 -11.41,-10.03 -19.37,-3.66 c -3.33,2.08 -6.95,2.81 -10.85,2.17 c 0.51,-0.36 1.03,-0.69 1.58,-0.97 c -1.76,-0.24 -3.51,-0.57 -5.26,-0.99 c -1.3,-0.85 -2.64,-1.64 -4.02,-2.36 c -0.82,-0.82 -1.64,-1.65 -2.47,-2.46 c -0.84,-1.5 -1.8,-2.91 -2.88,-4.24 c -0.42,-2 -0.93,-3.99 -1.52,-5.96 c 0.18,-1.34 0.18,-2.68 0.01,-4.01 c 0.75,-2.6 1.66,-5.14 2.72,-7.64 c 5.75,-9.3 17.61,-11.3 25.49,-3.26 c 1.69,0.95 3.38,1.89 5.08,2.82 c 1.73,-0.15 3.46,-0.2 5.19,-0.16 c 1.44,-0.77 2.89,-1.53 4.33,-2.28 c 0.48,-1.14 1.17,-2.13 2.08,-2.96 c -0.15,-2 0.24,-3.89 1.17,-5.68 c -0.09,-0.6 -0.17,-1.2 -0.25,-1.81 c 1.44,-4.12 0.41,-8.74 0.55,-13.03 c -0.54,-6.73 -1.31,-13.4 -2.3,-20.03 c -0.03,-1.27 0.43,-2.3 1.37,-3.08 c 1.89,-0.37 11.02,-1.26 12.04,-2.24 Z M 266.58,280 c 0.38,2.83 1.99,3.91 4.83,3.25 c 13.71,-0.98 24.33,-12.63 28.11,-25.24 c 0.66,-2.71 2.12,-17.83 -5.04,-11.08 c -2.21,11.83 -4.21,21.13 -15.94,26.89 c -2.93,2.38 -11.23,2.12 -11.96,6.18 Z M 248.26,280.93 c 0.6,3.87 8.79,2.82 11.21,2.09 c 3.75,-5.41 -3.73,-5.41 -6.94,-5.24 c -2.34,-0.14 -3.77,0.9 -4.27,3.15 Z"/>
  </g>
  <g>
    <path fill="#ffe974" stroke="#ffe974" stroke-width="0.5" d="M 248.26,280.93 c 0.5,-2.25 1.93,-3.29 4.27,-3.15 c 3.21,-0.17 10.69,-0.17 6.94,5.24 c -2.42,0.73 -10.61,1.78 -11.21,-2.09 Z"/>
  </g>
  <g>
    <path fill="#feec80" stroke="#feec80" stroke-width="0.5" d="M 266.58,280 c 0.73,-4.06 9.03,-3.8 11.96,-6.18 c 11.73,-5.76 13.73,-15.06 15.94,-26.89 c 7.16,-6.75 5.7,8.37 5.04,11.08 c -3.78,12.61 -14.4,24.26 -28.11,25.24 c -2.84,0.66 -4.45,-0.42 -4.83,-3.25 Z"/>
  </g>
  <g>
    <path fill="#e3615d" d="M 183.99,156.97 c 0.52,4.28 1.19,8.53 2,12.74 c -1.09,0.07 -2.1,0.38 -3.02,0.93 c -1.36,-0.02 -2.71,0.05 -4.06,0.22 c -0.43,-1.4 -6.09,0.5 -7.44,-1.18 c 1.53,-0.33 3.05,-0.71 4.57,-1.15 c 0.86,0.08 1.71,0.09 2.57,0.03 c 1.18,-0.65 2.44,-1.09 3.76,-1.31 c 0.15,-0.73 0.22,-1.48 0.19,-2.23 c 0.6,-0.74 1,-1.58 1.22,-2.5 c 0.07,-1.66 -1.65,-4.39 0.21,-5.55 Z"/>
  </g>
  <g>
    <path fill="#f5524f" stroke="#f5524f" stroke-width="0.5" d="M 99.98,49.23 c 1.04,0.72 2.21,0.99 3.5,0.81 c 24.67,-0.06 49.34,-0.11 74.01,-0.17 c 4.9,0.37 6.02,0.11 5.74,5.63 c -0.32,5.03 -0.86,10.03 -1.6,15.01 c -0.66,6.06 -0.63,12.12 0.09,18.16 c 0.75,1.96 1.54,3.89 2.36,5.81 c 2.04,2.93 4.85,4.5 8.42,4.73 c 4.07,-0.14 7.61,-3.6 11.01,-5.5 c 1.52,-0.16 2.91,-0.65 4.19,-1.48 c 2.78,-1.17 3.36,1.71 5.91,-0.1 c 3.33,-0.76 13.77,5.91 9.93,8.95 c -1.52,-0.3 -3.05,-0.46 -4.59,-0.49 c -0.62,0.38 -0.86,0.93 -0.72,1.65 c -0.96,-0.25 -1.45,2.58 -1.91,3.32 c -0.13,1.92 -0.31,3.84 -0.51,5.76 c -1.07,2.17 -3.53,-1.33 -4.87,0.51 c -4.74,-0.06 -0.84,6.19 1.45,7.23 c -0.41,0.1 -0.76,0.3 -1.05,0.6 c 0.79,0.66 1.65,1.24 2.59,1.74 c 1.37,0.48 2.77,0.78 4.2,0.9 c 2.85,3.73 -7.82,4.8 -9.66,4.57 c -0.6,0.02 -1.06,0.27 -1.37,0.75 c -7.67,-1.58 -13.78,-13.68 -21.46,-4.28 c -5.09,8.15 -2.45,24.32 -1.65,33.63 c -1.86,1.16 -0.14,3.89 -0.21,5.55 c -0.22,0.92 -0.62,1.76 -1.22,2.5 c 0.03,0.75 -0.04,1.5 -0.19,2.23 c -1.32,0.22 -2.58,0.66 -3.76,1.31 c -0.86,0.06 -1.71,0.05 -2.57,-0.03 c -1.52,0.44 -3.04,0.82 -4.57,1.15 c 1.35,1.68 7.01,-0.22 7.44,1.18 c -5.31,0.58 -43.41,6.13 -38.4,-5.96 c 6.55,-9.52 10.56,-16.96 4.59,-28.51 c -16.46,-24.17 -52.33,-3.89 -40.29,20.23 c 4.49,6.33 10.63,14.74 -2.57,15.85 c -5.4,0.17 -10.78,0.02 -16.16,-0.47 c 0.35,-0.48 0.82,-0.67 1.42,-0.59 c 5.32,-0.12 10.63,-0.18 15.95,-0.17 c 0.61,-0.03 1.07,-0.3 1.4,-0.79 c -0.31,-0.42 -0.73,-0.58 -1.27,-0.47 c -1.68,0.32 -3.37,0.49 -5.08,0.51 c -7.7,-0.17 -15.38,-0.78 -23.01,-1.83 c -1.71,-0.25 -3.39,-0.62 -5.05,-1.13 c -1.45,-0.42 -2.61,-1.23 -3.47,-2.43 c -0.68,-2.14 -1.03,-4.33 -1.04,-6.58 c 0,-24.34 0.2,-48.67 0.61,-73 c 0.13,-0.7 -0.12,-1.19 -0.75,-1.49 c 0.8,-4.94 2.36,-9.63 4.7,-14.06 c 6.82,-11.27 16.44,-18.34 29.49,-20.74 Z M 75.67,90 c 0.56,3.51 2.39,4.42 5.5,2.71 c 0.77,-3.72 1.75,-7.4 2.95,-11.05 c 4.89,-10.59 12.26,-13.79 22.57,-17.46 c 1.44,-2.43 0.26,-5.7 -3.08,-4.99 c -16.45,2.48 -26.53,14.46 -27.94,30.79 Z M 207.64,102.01 c 0.75,3.84 5.95,3.55 6.14,-0.5 c -0.63,-3.9 -6.35,-3.67 -6.14,0.5 Z"/>
  </g>
  <g>
    <path fill="#fe8984" stroke="#fe8984" stroke-width="0.5" d="M 75.67,90 c 1.41,-16.33 11.49,-28.31 27.94,-30.79 c 3.34,-0.71 4.52,2.56 3.08,4.99 c -10.31,3.67 -17.68,6.87 -22.57,17.46 c -1.2,3.65 -2.18,7.33 -2.95,11.05 c -3.11,1.71 -4.94,0.8 -5.5,-2.71 Z"/>
  </g>
  <g>
    <path fill="#6eacb8" d="M 184.62,173.4 c 0.54,-0.1 1.08,-0.21 1.62,-0.31 c 1.02,6.98 1.83,13.99 2.43,21.03 c -1.55,0.65 -2.05,-6.51 -2.03,-7.64 c -0.17,-0.93 -0.5,-1.81 -1.01,-2.62 c -0.01,-3.51 -0.35,-7 -1.01,-10.46 Z"/>
  </g>
  <g>
    <path fill="#51b6df" stroke="#51b6df" stroke-width="0.5" d="M 184.62,173.4 c 0.66,3.46 1,6.95 1.01,10.46 c 0.51,0.81 0.84,1.69 1.01,2.62 c -0.02,1.13 0.48,8.29 2.03,7.64 c 0.47,5.46 0.56,10.92 0.28,16.39 c -0.11,2.69 -1,5.08 -2.67,7.16 c -6.05,4.37 -18.77,-15.05 -34.54,-2.37 c -20.31,16.72 -2.52,48.99 21.12,38.86 c 12.7,-9.4 16.59,-7.37 16.15,9.33 c -0.2,9.92 -1.21,19.75 -3.02,29.49 c -0.04,0.32 -0.08,0.64 -0.12,0.95 c -27.62,0 -55.24,-0.17 -82.86,-0.51 c -13.2,-1.57 -19.83,-6.96 -29.12,-15.45 c -0.08,-0.66 -0.27,-1.28 -0.58,-1.87 c -4.64,-6.56 -7.23,-13.85 -7.79,-21.87 c -0.2,-26.54 -0.26,-53.08 -0.18,-79.62 c -0.02,-1.39 0.67,-1.93 2.07,-1.63 c 10.28,1.79 20.63,2.73 31.06,2.81 c 15.73,1.1 19.73,-8.32 9.91,-19.75 c -9.29,-17.39 10.83,-33.95 27.26,-24.27 c 12.61,8.79 10.21,20.67 2.04,31.32 c -8.64,19.82 38.81,10.88 46.94,10.31 Z M 112.57,144.01 c 0.52,2.81 3.44,3.16 5.18,1.25 c 2.01,-5.62 -5.45,-6.45 -5.18,-1.25 Z M 131.91,144 c 0.72,4.51 6.5,3.07 5.13,-1.49 c -0.9,-2.93 -5.19,-1.96 -5.13,1.49 Z M 119.82,149 c 1.16,4.93 8,5.19 10.74,1.12 c 0.73,-1.29 0.39,-2.04 -1.02,-2.25 c -2.87,1.2 -5.27,4.1 -7.61,-0.22 c -1.35,-0.62 -2.05,-0.17 -2.11,1.35 Z M 75.01,234 c 0.02,2 0.26,3.97 0.73,5.9 c 6.51,5.44 5.33,-7.12 4.7,-9.92 c -3.66,-2.76 -5.69,0.41 -5.43,4.02 Z M 75.61,249.99 c 1.42,19.6 16.34,35.19 36.78,32.8 c 2.17,-0.81 2.21,-3.86 0.6,-5.19 c -13.73,-1.93 -22.53,-4.82 -28.64,-18.38 c -1.26,-3.84 -2.39,-7.71 -3.37,-11.62 c -2.83,-1.49 -4.62,-0.69 -5.37,2.39 Z"/>
  </g>
  <g>
    <path fill="#89d7f2" stroke="#89d7f2" stroke-width="0.5" d="M 75.61,249.99 c 0.75,-3.08 2.54,-3.88 5.37,-2.39 c 0.98,3.91 2.11,7.78 3.37,11.62 c 6.11,13.56 14.91,16.45 28.64,18.38 c 1.61,1.33 1.57,4.38 -0.6,5.19 c -20.44,2.39 -35.36,-13.2 -36.78,-32.8 Z"/>
  </g>
  <g>
    <path fill="#8edbf6" stroke="#8edbf6" stroke-width="0.5" d="M 75.01,234 c -0.26,-3.61 1.77,-6.78 5.43,-4.02 c 0.63,2.8 1.81,15.36 -4.7,9.92 c -0.47,-1.93 -0.71,-3.9 -0.73,-5.9 Z"/>
  </g>
  <g>
    <path fill="#91c650" stroke="#91c650" stroke-width="0.5" d="M 191.09,48.71 c 21.8,0.14 43.6,0.19 65.4,0.17 c 13.83,0.11 26.04,-0.82 37.49,8.37 c 8.65,6.97 13.76,15.94 15.35,26.92 c 1.25,21.66 0.35,44.06 0.64,65.82 c -0.77,-0.58 -1.09,-1.37 -0.96,-2.39 c 0.01,-11.05 0.02,-22.1 0.03,-33.15 c 0.05,-0.71 -0.09,-1.37 -0.41,-1.99 c -0.26,8.68 -0.23,17.36 0.09,26.04 c -1.1,4.52 1,8.35 -0.92,12.97 c -0.09,4.39 0.09,8.76 0.55,13.1 c -0.41,2.53 -1.7,3.15 -3.86,1.86 c -1.49,0.92 -3.39,-0.13 -4.99,-0.2 c -1.34,0.13 -2.68,0.32 -4,0.58 c -5.85,-1.74 -12.01,-1.71 -17.99,-2.62 c -6.53,0.71 -20.36,2.6 -17.69,12.29 c -0.34,2.64 -0.89,2.96 0.8,5.58 c 5.19,7.09 7,6.4 6.5,16.44 c 0.02,7.11 -11.19,14.49 -17.64,14.15 c -2.2,-0.73 -4.23,-1.77 -6.1,-3.1 c 0.8,-0.48 1.5,-1.07 2.1,-1.78 c 1.75,0.4 3.35,1.08 4.81,2.05 c 1.69,-2.25 3.47,-1.32 5.72,-2.46 c 3.11,-2.43 3.03,-4.01 4.21,-7.64 c 2.93,-2.52 4.21,-4.98 1.99,-8.59 c -1.46,-0.76 -2.95,-1.39 -4.46,-1.89 c -0.94,1.01 -1.92,1.94 -2.96,2.81 c -0.98,2.83 0.49,7.14 -3.24,8.05 c -1.11,-0.37 -5.98,0.94 -5.43,-1.43 c 1.22,-2.15 0.95,-4.83 1.86,-7.21 c -0.1,-1.72 0.16,-2.38 -1.49,-1.86 c -0.56,-0.28 -1.16,-0.42 -1.78,-0.42 c -1.8,0.6 -3.65,1.04 -5.54,1.33 c -1.34,0.66 -1.46,1.48 -0.33,2.48 c -0.94,1.83 -0.64,3.45 0.89,4.87 c -0.57,0.6 -0.5,1.17 0.22,1.69 c 0.13,0.92 0.25,1.85 0.35,2.77 c 1.78,1.8 -0.12,2.76 -1.7,2.03 c -1.14,1.68 -1.11,1.76 -2.99,1.08 c -0.36,0.35 -0.57,0.78 -0.62,1.28 c -13.84,-16.61 12.1,-27.23 0.57,-36.72 c -9.79,-6.79 -33.1,-1.99 -44.56,-0.92 c -0.85,-4.54 -1.75,-9.06 -2.71,-13.56 c 0.48,-2.35 0.4,-4.68 -0.24,-7 c -0.18,-3.67 -0.36,-7.34 -0.53,-11.01 c 0.22,-3.39 0.63,-6.73 1.25,-10.04 c 1.28,-1.46 2.87,-2.07 4.76,-1.85 c 2.85,1.85 5.7,3.73 8.55,5.62 c 2.13,0.58 4.27,1.16 6.41,1.75 c 1.67,-0.04 3.34,-0.06 5.01,-0.05 c 1.6,-0.46 3.2,-0.86 4.83,-1.2 c 1.82,-0.9 3.65,-1.78 5.49,-2.64 c 1.39,-1.18 2.73,-2.41 4.02,-3.7 c 0.74,-1.21 1.58,-2.36 2.51,-3.44 c 0.79,-1.53 1.54,-3.08 2.26,-4.64 c 0.32,-2.64 0.78,-5.24 1.4,-7.82 c -0.25,-2.96 -0.74,-5.89 -1.46,-8.77 c -1.47,-3.83 -3.67,-7.16 -6.62,-10 c -2.14,-1.53 -4.35,-2.94 -6.62,-4.25 c -3.3,-0.78 -6.09,-1.92 -9.57,-1.89 c -2.84,0.54 -5.63,1.32 -8.36,2.33 c -2.39,1.15 -4.48,2.71 -6.26,4.67 c -2.41,1.52 -4.53,1.18 -6.39,-1.02 c -0.55,-2.66 -0.94,-5.34 -1.17,-8.06 c 0.16,-3.67 0.3,-7.34 0.43,-11.01 c 0.56,-3.95 0.92,-7.91 1.05,-11.9 c 0.4,-1.54 0.82,-3.07 1.26,-4.6 c 0.66,-2.12 -0.72,-4.53 0.79,-6.28 Z M 261.77,62 c 0.66,4.28 9.83,2.97 12.96,4.79 c 13.44,4.83 16.29,12.74 19.51,25.46 c 4.61,3.47 6.27,-1.61 5.3,-5.43 c -3.14,-17.33 -17.98,-29.89 -35.91,-27.67 c -1.13,0.59 -1.75,1.54 -1.86,2.85 Z M 294.29,105 c 0.32,2.28 -0.23,6.05 3.21,5.81 c 4.05,-0.15 3.98,-15.89 -2.29,-11.08 c -0.65,1.69 -0.96,3.44 -0.92,5.27 Z"/>
  </g>
  <g>
    <path fill="#bff376" stroke="#bff376" stroke-width="0.5" d="M 294.29,105 c -0.04,-1.83 0.27,-3.58 0.92,-5.27 c 6.27,-4.81 6.34,10.93 2.29,11.08 c -3.44,0.24 -2.89,-3.53 -3.21,-5.81 Z"/>
  </g>
  <g>
    <path fill="#c2f37a" stroke="#c2f37a" stroke-width="0.5" d="M 261.77,62 c 0.11,-1.31 0.73,-2.26 1.86,-2.85 c 17.93,-2.22 32.77,10.34 35.91,27.67 c 0.97,3.82 -0.69,8.9 -5.3,5.43 c -3.22,-12.72 -6.07,-20.63 -19.51,-25.46 c -3.13,-1.82 -12.3,-0.51 -12.96,-4.79 Z"/>
  </g>
  <g>
    <path fill="#89be59" d="M 309.98,150.97 c 0.04,5.35 0.03,10.69 -0.02,16.03 c -0.45,0.08 -0.73,-0.1 -0.84,-0.54 c 0.17,-4.64 0.23,-9.28 0.16,-13.92 c -0.09,-0.68 0.14,-1.21 0.7,-1.57 Z"/>
  </g>
  <g>
    <path fill="#3b630f" stroke="#3b630f" stroke-width="0.5" d="M 234.99,206.71 c 4.06,4.79 9.23,7.13 15.51,7.03 c 9.25,-0.73 15.36,-5.49 18.31,-14.27 c 1.96,-9.21 -2.53,-12.71 -7.11,-19.47 c -1.79,-3.78 -1.22,-7.15 1.69,-10.12 c 4.54,-3.71 10.79,-3.41 16.33,-3.39 c 9.49,0.49 18.93,1.47 28.31,2.94 c 0.57,0.14 1.11,0.36 1.61,0.66 c -0.29,2.49 2.21,1.86 3.8,1.92 c 0.01,0.33 0.02,0.65 0.03,0.98 c -1.09,0 -2.19,0.04 -3.28,0.12 c -9.52,-1.41 -19.09,-2.45 -28.69,-3.12 c -4.9,0.12 -10.75,-0.83 -15.08,1.98 c -5.65,4.55 0.98,9.54 3.59,13.52 c 2.98,5.28 3.53,10.8 1.67,16.57 c -3.43,8.48 -9.66,13.49 -18.68,15.04 c -2,0.2 -4,0.2 -6,0 c -9.34,-1.58 -15.59,-6.83 -18.76,-15.75 c -1.7,-5.54 -1.14,-10.85 1.66,-15.92 c 1.53,-2.18 3.16,-4.29 4.88,-6.32 c 3.43,-6.4 -4.42,-8.86 -9.28,-9.12 c -8.27,-0.25 -16.5,0.26 -24.67,1.55 c -3.69,0.32 -7.37,0.7 -11.04,1.15 c -0.08,-1.37 0.32,-2.58 1.21,-3.62 c 11.46,-1.07 34.77,-5.87 44.56,0.92 c 11.53,9.49 -14.41,20.11 -0.57,36.72 Z"/>
  </g>
  <g>
    <path fill="#356726" stroke="#356726" stroke-width="0.5" d="M 190.01,45.13 c 27.49,-0.09 54.98,-0.05 82.46,0.14 c 8.89,0.77 16.86,3.89 23.91,9.35 c -2.07,-0.73 -1.84,1.42 -2.4,2.63 c -11.45,-9.19 -23.66,-8.26 -37.49,-8.37 c -21.8,0.02 -43.6,-0.03 -65.4,-0.17 c -0.44,0.03 -0.88,0.06 -1.32,0.08 c 0.23,-0.89 0.2,-1.77 -0.08,-2.65 c 0.11,-0.33 0.21,-0.67 0.32,-1.01 Z"/>
  </g>
  <g>
    <path fill="#346424" d="M 296.38,54.62 c 8.94,7.34 14.36,16.71 16.26,28.13 c 1.64,29.15 0.43,59.92 0.8,89.26 c -1.59,-0.06 -4.09,0.57 -3.8,-1.92 c 0.2,-1.02 0.31,-2.05 0.32,-3.09 c 0.05,-5.34 0.06,-10.68 0.02,-16.03 c -0.01,-0.32 -0.01,-0.65 -0.01,-0.98 c -0.29,-21.76 0.61,-44.16 -0.64,-65.82 c -1.59,-10.98 -6.7,-19.95 -15.35,-26.92 c 0.56,-1.21 0.33,-3.36 2.4,-2.63 Z"/>
  </g>
  <g>
    <path fill="#7b0c0d" d="M 69.7,64.67 c 0.45,0.91 0.64,1.86 0.56,2.86 c -1.05,0.87 -0.98,1.68 0.23,2.44 c -2.34,4.43 -3.9,9.12 -4.7,14.06 c -0.45,2.8 -0.68,5.63 -0.67,8.47 c 0.06,25.5 0.04,50.99 -0.07,76.48 c -1.06,0.21 -2.13,0.22 -3.2,0.02 c -0.02,-27.84 0.05,-55.67 0.21,-83.51 c 0.89,-7.54 3.44,-14.48 7.64,-20.82 Z"/>
  </g>
  <g>
    <path fill="#672a07" d="M 194.96,124.12 c 2.38,-1.44 4.35,2.23 5.91,3.43 c 2,0.55 3.91,1.31 5.73,2.29 c 2.83,-0.17 5.66,-0.24 8.48,-0.22 c 1.97,-0.8 3.97,-1.51 6.01,-2.11 c 1.88,-2.07 3.86,-4.07 5.91,-6.01 c 0.99,-1.41 1.82,-2.92 2.5,-4.51 c 0.35,-1.54 0.8,-3.04 1.36,-4.5 c -0.12,-2.64 -0.15,-5.27 -0.08,-7.89 c -0.97,-1.81 -1.74,-3.71 -2.31,-5.69 c -0.99,-1.01 -1.86,-2.12 -2.63,-3.32 c -1.74,-1.91 -3.58,-3.7 -5.53,-5.37 c -1.71,-0.5 -3.36,-1.17 -4.94,-2 c -1.62,-0.07 -3.23,-0.26 -4.83,-0.57 c -1.64,0.22 -3.28,0.4 -4.93,0.56 c -1.58,0.78 -3.17,1.52 -4.78,2.23 c -0.76,1.25 -1.78,1.56 -3.06,0.91 c 3.11,-2.81 6.74,-4.49 10.89,-5.05 c 30.03,-1.08 32.18,43.05 2.79,45.27 c -6.59,-0.04 -12.09,-2.53 -16.49,-7.45 Z"/>
  </g>
  <g>
    <path fill="#841511" d="M 190.01,45.13 c -0.11,0.34 -0.21,0.68 -0.32,1.01 c -1.13,-0.3 -1.79,0.13 -1.98,1.3 c 0.34,3.5 -0.96,6.43 -0.92,9.95 c -0.41,1.03 -0.82,2.06 -1.23,3.09 c -0.18,3.02 -0.46,6.03 -0.85,9.03 c 0.19,6.01 0.17,12.01 -0.07,18.01 c 0.27,1.1 0.63,2.17 1.08,3.21 c 0.73,1.01 1.36,2.09 1.89,3.22 c 1.2,0.85 2.5,1.49 3.88,1.91 c 1.73,0.23 4.96,-0.45 4.51,-2.85 c 0.72,-0.39 1.31,-0.94 1.77,-1.66 c 1.28,0.65 2.3,0.34 3.06,-0.91 c 1.61,-0.71 3.2,-1.45 4.78,-2.23 c 1.65,-0.16 3.29,-0.34 4.93,-0.56 c 1.6,0.31 3.21,0.5 4.83,0.57 c 1.58,0.83 3.23,1.5 4.94,2 c 1.95,1.67 3.79,3.46 5.53,5.37 c 0.77,1.2 1.64,2.31 2.63,3.32 c 0.57,1.98 1.34,3.88 2.31,5.69 c -0.07,2.62 -0.04,5.25 0.08,7.89 c -0.56,1.46 -1.01,2.96 -1.36,4.5 c -0.68,1.59 -1.51,3.1 -2.5,4.51 c -2.05,1.94 -4.03,3.94 -5.91,6.01 c -2.04,0.6 -4.04,1.31 -6.01,2.11 c -2.82,-0.02 -5.65,0.05 -8.48,0.22 c -1.82,-0.98 -3.73,-1.74 -5.73,-2.29 c -1.56,-1.2 -3.53,-4.87 -5.91,-3.43 c -2.53,-1.39 -4.75,-1 -6.67,1.17 c -2.38,-0.32 -2.23,2.77 -3.04,4.28 c -0.25,4.64 -0.48,9.29 -0.71,13.93 c -0.03,2.69 0.06,5.38 0.27,8.06 c 0.75,1.92 1.12,3.91 1.13,5.96 c 0.41,0.65 1,0.91 1.78,0.76 c 0.25,2.57 0.53,5.13 0.84,7.68 c -0.87,1.63 0.16,4.28 -2.57,3.75 c -0.81,-4.21 -1.48,-8.46 -2,-12.74 c -0.8,-9.31 -3.44,-25.48 1.65,-33.63 c 7.68,-9.4 13.79,2.7 21.46,4.28 c 10.31,2.2 19.14,-4.36 21.45,-14.33 c 1.44,-7.25 -0.45,-13.47 -5.68,-18.67 c -5.15,-4.52 -11,-5.84 -17.55,-3.95 c -2.99,1.55 -5.77,3.42 -8.34,5.61 c -5.08,3.27 -10.41,1.17 -12.69,-4.2 c -1.06,-3.1 -1.54,-6.3 -1.45,-9.58 c 0.07,-10.77 1.08,-21.45 3.05,-32.04 c 0.16,-0.6 0.03,-1.12 -0.41,-1.56 c -24.64,-0.15 -49.31,-0.2 -73.98,-0.16 c -3.85,-0.06 -7.69,0.1 -11.52,0.49 c -13.05,2.4 -22.67,9.47 -29.49,20.74 c -1.21,-0.76 -1.28,-1.57 -0.23,-2.44 c 0.08,-1 -0.11,-1.95 -0.56,-2.86 c 8.3,-12.48 21.82,-19.56 36.8,-19.57 c 27.84,-0.02 55.67,-0.01 83.51,0.03 Z"/>
  </g>
  <g>
    <path fill="#682d09" d="M 189.69,46.14 c 0.28,0.88 0.31,1.76 0.08,2.65 c -1.2,5.52 -2.08,11.08 -2.64,16.71 c -0.37,8.22 -2.07,16.75 0.15,24.84 c 1.3,3.92 5.47,5.8 8.72,2.67 c 0.45,2.4 -2.78,3.08 -4.51,2.85 c -1.38,-0.42 -2.68,-1.06 -3.88,-1.91 c -0.53,-1.13 -1.16,-2.21 -1.89,-3.22 c -0.45,-1.04 -0.81,-2.11 -1.08,-3.21 c 0.24,-6 0.26,-12 0.07,-18.01 c 0.39,-3 0.67,-6.01 0.85,-9.03 c 0.41,-1.03 0.82,-2.06 1.23,-3.09 c -0.04,-3.52 1.26,-6.45 0.92,-9.95 c 0.19,-1.17 0.85,-1.6 1.98,-1.3 Z"/>
  </g>
  <g>
    <path fill="#326c15" d="M 242.7,202.01 c -0.03,-1.19 0.53,-1.74 1.68,-1.65 c 5.56,4.37 5.67,5.37 11.28,-0.04 c 2.05,-0.17 2.68,0.73 1.9,2.7 c -3.54,5.96 -12.52,5.51 -14.86,-1.01 Z"/>
  </g>
  <g>
    <path fill="#911109" d="M 210.94,111.83 c 3.74,3.95 3.17,5.58 9.58,3.15 c 1.9,-0.14 1.68,1.89 0.76,2.9 c -2.7,2.2 -5.67,2.59 -8.89,1.18 c -2.29,-1.04 -6.19,-7.29 -1.45,-7.23 Z"/>
  </g>
  <g>
    <path fill="#244365" d="M 178.91,170.86 c 1.35,-0.17 2.7,-0.24 4.06,-0.22 c 1.46,0.81 2.89,0.44 3.27,2.45 c -0.54,0.1 -1.08,0.21 -1.62,0.31 c -8.13,0.57 -55.58,9.51 -46.94,-10.31 c 8.17,-10.65 10.57,-22.53 -2.04,-31.32 c -16.43,-9.68 -36.55,6.88 -27.26,24.27 c 9.82,11.43 5.82,20.85 -9.91,19.75 c -10.43,-0.08 -20.78,-1.02 -31.06,-2.81 c -1.4,-0.3 -2.09,0.24 -2.07,1.63 c -0.08,26.54 -0.02,53.08 0.18,79.62 c 0.56,8.02 3.15,15.31 7.79,21.87 c 0.31,0.59 0.5,1.21 0.58,1.87 c -0.4,1.08 -0.78,2.17 -1.13,3.26 c -6.12,-7.51 -9.68,-16.09 -10.69,-25.73 c -0.21,-28.83 -0.28,-57.67 -0.22,-86.5 c 1.07,0.2 2.14,0.19 3.2,-0.02 c 6.93,1.55 13.94,2.56 21.03,3.02 c 5.38,0.49 10.76,0.64 16.16,0.47 c 13.2,-1.11 7.06,-9.52 2.57,-15.85 c -12.04,-24.12 23.83,-44.4 40.29,-20.23 c 5.97,11.55 1.96,18.99 -4.59,28.51 c -5.01,12.09 33.09,6.54 38.4,5.96 Z"/>
  </g>
  <g>
    <path fill="#134a71" d="M 73.89,277.97 c 9.29,8.49 15.92,13.88 29.12,15.45 c 27.62,0.34 55.24,0.51 82.86,0.51 c 0.07,1.08 0.13,2.15 0.2,3.22 c -27.53,0.02 -55.05,-0.03 -82.57,-0.16 c -7.82,-0.68 -15.01,-3.17 -21.58,-7.48 c -3.41,-2.36 -6.47,-5.12 -9.16,-8.28 c 0.35,-1.09 0.73,-2.18 1.13,-3.26 Z"/>
  </g>
  <g>
    <path fill="#652f08" d="M 188.29,125.29 c -1.39,2.9 -2.11,5.97 -2.18,9.21 c 0.1,7.96 0.63,15.88 1.61,23.78 c -0.78,0.15 -1.37,-0.11 -1.78,-0.76 c -0.01,-2.05 -0.38,-4.04 -1.13,-5.96 c -0.21,-2.68 -0.3,-5.37 -0.27,-8.06 c 0.23,-4.64 0.46,-9.29 0.71,-13.93 c 0.81,-1.51 0.66,-4.6 3.04,-4.28 Z"/>
  </g>
  <g>
    <path fill="#0b4e77" d="M 119.82,149 c 0.06,-1.52 0.76,-1.97 2.11,-1.35 c 2.34,4.32 4.74,1.42 7.61,0.22 c 1.41,0.21 1.75,0.96 1.02,2.25 c -2.74,4.07 -9.58,3.81 -10.74,-1.12 Z"/>
  </g>
  <g>
    <path fill="#306615" stroke="#306615" stroke-width="0.5" d="M 239.73,197.86 c -1.53,-1.42 -1.83,-3.04 -0.89,-4.87 c 1.53,-1.38 3.06,-1.38 4.59,0 c 1.71,3.01 -0.54,5.35 -3.7,4.87 Z"/>
  </g>
  <g>
    <path fill="#8f120c" stroke="#8f120c" stroke-width="0.5" d="M 207.64,102.01 c -0.21,-4.17 5.51,-4.4 6.14,-0.5 c -0.19,4.05 -5.39,4.34 -6.14,0.5 Z"/>
  </g>
  <g>
    <path fill="#356b16" stroke="#356b16" stroke-width="0.5" d="M 256.13,194.96 c 0.52,-3.07 2.18,-3.91 4.96,-2.52 c 3.11,4.92 -3.71,7.53 -4.96,2.52 Z"/>
  </g>
  <g>
    <path fill="#155783" d="M 112.57,144.01 c -0.27,-5.2 7.19,-4.37 5.18,1.25 c -1.74,1.91 -4.66,1.56 -5.18,-1.25 Z"/>
  </g>
  <g>
    <path fill="#124f79" d="M 131.91,144 c -0.06,-3.45 4.23,-4.42 5.13,-1.49 c 1.37,4.56 -4.41,6 -5.13,1.49 Z"/>
  </g>
  <g>
    <path fill="#8f110a" d="M 218.23,102.24 c 3.57,-2.02 4.8,2.94 4.1,5.49 c -0.81,1.42 -1.83,1.6 -3.06,0.54 c -0.04,-2.09 -0.39,-4.1 -1.04,-6.03 Z"/>
  </g>
  <g>
    <path fill="#5f4a2a" d="M 188.56,165.96 c 0.4,1.31 0.4,3.66 2.44,3.11 c -0.89,1.04 -1.29,2.25 -1.21,3.62 c -0.32,0.13 -0.64,0.26 -0.96,0.39 c -0.87,-0.04 -1.73,-0.03 -2.59,0.01 c -0.38,-2.01 -1.81,-1.64 -3.27,-2.45 c 0.92,-0.55 1.93,-0.86 3.02,-0.93 c 2.73,0.53 1.7,-2.12 2.57,-3.75 Z"/>
  </g>
</svg>