<?xml version="1.0" encoding="utf-8"?>
<svg xmlns="http://www.w3.org/2000/svg" version="1.1" width="314px" height="268px" style="shape-rendering:geometricPrecision; text-rendering:geometricPrecision; image-rendering:optimizeQuality; fill-rule:evenodd; clip-rule:evenodd">
  <g>
    <path fill="#ebb881" stroke="#ebb881" stroke-width="0.5" d="M 66.82,13.13 c -0.2,1.33 -0.4,4.05 1.68,3.74 c 50.33,0.07 100.65,0.09 150.98,0.05 c 2.2,0.09 1.88,-2.35 1.69,-3.81 c 0.55,0.27 0.78,0.72 0.7,1.36 c -0.21,4.78 -0.11,9.54 0.3,14.3 c -0.82,0.38 -1.69,0.57 -2.6,0.6 c -51.21,0.04 -102.43,-0.01 -153.65,-0.15 c 0.33,-5.2 0.46,-10.4 0.4,-15.62 c 0.05,-0.29 0.21,-0.45 0.5,-0.47 Z M 38.81,54.95 c 0.38,1.14 0.55,2.31 0.5,3.51 c -0.04,51.32 -0.01,102.64 0.08,153.95 c 0.05,1.32 -0.14,2.6 -0.59,3.84 c -5.09,-0.22 -10.19,-0.24 -15.28,-0.06 c -0.98,-0.13 -1.56,-0.68 -1.73,-1.65 c 0.03,-52.35 0,-104.7 -0.07,-157.05 c -0.15,-1.39 0.43,-2.17 1.73,-2.36 c 4.34,0.19 8.67,0.24 13.01,0.18 c 0.79,-0.04 1.58,-0.16 2.35,-0.36 Z M 22.56,58 c 0.18,51.5 0.2,103 0.05,154.5 c -0.48,3.12 3.39,3.66 3.24,1.01 c 0.03,-2.01 -0.11,-4.01 -0.4,-6 c 0.34,-8.99 0.49,-17.99 0.45,-27 c -0.16,-41.02 -0.2,-82.03 -0.12,-123.05 c 0.43,-2.02 -3.24,-2.55 -3.22,0.54 Z"/>
  </g>
  <g>
    <path fill="#3b8449" stroke="#3b8449" stroke-width="0.5" d="M 62.31,36.94 c 4.32,4.11 6.47,7.31 13.15,7.35 c 45.68,-0.02 91.35,-0.02 137.03,0.01 c 5.53,-0.34 7.89,-1.79 11.53,-5.67 c 2.71,-0.36 1.8,3.51 2.83,5.16 c -2.95,-0.6 -7.54,6.74 -13.25,6.2 c -45.37,-0.03 -90.74,0.01 -136.12,0.13 c -7.05,0 -11.87,-2.41 -15.34,-8.49 c -0.03,-1.57 0.03,-3.13 0.17,-4.69 Z M 52.8,51.3 c -0.37,0.56 -0.45,1.14 -0.26,1.75 c 6.98,5.25 7.51,10.03 7.41,18.47 c -0.07,45.34 -0.07,90.69 0.01,136.04 c -0.2,3.45 -3.27,8.39 -6.14,10.45 c -0.66,0.3 -1.27,0.71 -1.81,1.21 c -1.29,-0.12 -2.58,-0.14 -3.87,-0.07 c -0.12,-0.34 -0.23,-0.69 -0.35,-1.04 c 10.2,-6.27 5.34,-21.62 6.55,-31.62 c -0.04,-40.33 -0.08,-80.66 -0.11,-120.99 c 0.49,-4.42 -2.61,-10.37 -6.35,-12.52 c 0.06,-0.34 0.12,-0.68 0.17,-1.03 c 1.6,-0.09 3.18,-0.3 4.75,-0.65 Z"/>
  </g>
  <g>
    <path fill="#62aa5e" stroke="#62aa5e" stroke-width="0.5" d="M 45,52.87 c 0.54,0.66 1.08,1.3 1.61,1.92 c -3.28,0.1 1.11,4.24 1.58,5.24 c -0.01,47.18 0.01,94.36 0.05,141.54 c -0.32,3.17 0.61,9.29 -2.68,11.09 c -0.35,-0.42 -0.69,-0.87 -1.02,-1.32 c -1.88,1.64 -1.32,3.67 -2.23,5.71 c -0.28,-0.83 -0.4,-1.67 -0.37,-2.55 c 0.1,-53.3 0.13,-106.6 0.11,-159.9 c -0.04,-4.8 0.24,-3.04 2.95,-1.73 Z"/>
  </g>
  <g>
    <path fill="#d79b6a" stroke="#d79b6a" stroke-width="0.5" d="M 66.28,241.97 c 0.2,0.06 0.4,0.13 0.6,0.19 c 0.03,0.28 0.06,0.56 0.1,0.84 c -0.28,2.86 -0.39,5.72 -0.34,8.59 c 0.11,1.19 0.75,1.87 1.92,2.03 c 1.96,0.15 3.92,0.03 5.89,-0.35 c 41.01,0.05 82.01,0.06 123.01,0.02 c 7.75,1.21 15.18,-0.49 22.95,-0.44 c 0.49,-0.31 0.72,-0.76 0.7,-1.36 c -0.06,-2.79 -0.08,-5.57 -0.07,-8.35 c 0.06,-0.33 0.11,-0.65 0.17,-0.98 c 0.2,-0.03 0.39,-0.06 0.59,-0.09 c 0.1,0.37 0.21,0.74 0.31,1.11 c -0.2,0.76 -0.33,1.53 -0.41,2.32 c -0.03,4.29 -0.05,8.58 -0.06,12.87 c -0.11,0.11 -0.22,0.23 -0.33,0.35 c -4.78,0 -9.56,0.01 -14.34,0.04 c -8.28,-0.1 -16.56,-0.11 -24.84,-0.05 c -13.08,-0.05 -26.16,-0.01 -39.23,0.09 c -0.93,0.02 -1.86,0.02 -2.79,0.01 c -10.75,-0.11 -21.5,-0.15 -32.25,-0.1 c -2.92,-0.04 -5.84,-0.03 -8.76,0.04 c -10.49,-0.05 -20.98,-0.07 -31.47,-0.05 c -0.75,-0.01 -1.41,-0.25 -1.97,-0.73 c -0.08,-5.35 0.13,-10.69 0.62,-16 Z"/>
  </g>
  <g>
    <path fill="#62a85c" stroke="#62a85c" stroke-width="0.5" d="M 224.8,34.79 c -1.2,1.11 -2.42,2.2 -3.65,3.27 c -0.26,-0.63 -0.72,-0.91 -1.38,-0.85 c -2.09,0.85 -4.27,1.3 -6.53,1.37 c -45.89,0.27 -91.79,0.31 -137.68,0.12 c -2.69,-0.47 -6.03,-0.19 -8.03,-2.35 c -0.34,0.49 -0.57,1.03 -0.71,1.61 c -1.39,-1.23 -2.66,-2.59 -3.8,-4.06 c -1.37,-1.9 -0.58,-2.02 1.54,-1.99 c 48.97,0.25 97.94,0.35 146.91,0.31 c 4.39,-0.09 8.77,-0.22 13.14,-0.37 c 2.44,0.06 0.98,2 0.19,2.94 Z M 110.94,231.29 c -0.29,0.67 -0.79,1.12 -1.51,1.32 c 34.02,0.12 68.04,0.13 102.07,0.03 c 2.89,0.31 6.35,0.97 8.79,2.63 c 0.94,0.9 1.82,3.43 3.46,2.25 c -0.62,-1.34 -1.76,-1.59 -1.74,-3.35 c 1.27,0.77 2.41,1.73 3.39,2.89 c 0.16,1.14 -0.29,1.92 -1.34,2.33 c -7.16,-0.47 -14.33,-0.71 -21.52,-0.7 c -39.5,-0.01 -78.99,0.05 -118.47,0.18 c -0.04,-0.61 0.15,-1.12 0.59,-1.52 c 4.33,-0.59 8.62,-1.38 12.86,-2.37 c 3.08,-0.69 10.61,-4.27 13.42,-3.69 Z"/>
  </g>
  <g>
    <path fill="#7a552c" d="M 268.33,32.71 c -0.75,0.34 -1.19,0.91 -1.32,1.72 c 0.13,5.36 0.18,10.72 0.15,16.08 c -0.03,0.69 -0.34,1.19 -0.93,1.52 c 0.17,-14.22 1.7,-24.45 -10.26,-34.53 c -0.51,-0.34 -1.07,-0.49 -1.69,-0.44 c -1.31,-2.29 -10.07,-4.54 -12.77,-4.33 c -4.67,-0.04 -9.35,-0.09 -14.02,-0.15 c -3.22,-0.23 -3.17,2.1 -2.44,4.47 c -0.8,3.09 -0.55,8.47 -0.32,11.81 c -0.87,0.32 -1.72,0.29 -2.56,-0.09 c -0.41,-4.76 -0.51,-9.52 -0.3,-14.3 c 0.08,-0.64 -0.15,-1.09 -0.7,-1.36 c -0.87,-0.22 -1.76,-0.37 -2.65,-0.44 c -47.33,0.06 -94.66,0.04 -141.99,-0.04 c -3.26,-0.08 -6.49,0.09 -9.71,0.5 c -0.29,0.02 -0.45,0.18 -0.5,0.47 c 0.06,5.22 -0.07,10.42 -0.4,15.62 c -0.63,-0.39 -1.27,-0.78 -1.9,-1.18 c -0.97,-1.67 -0.04,-8.61 -0.85,-11.08 c 0,-1.24 0.76,-3.35 -0.65,-4.09 c -5.64,-0.14 -11.29,-0.17 -16.95,-0.08 c -11.2,1 -20.96,8.52 -23.16,19.83 c -0.56,6.28 -0.68,12.57 -0.37,18.86 c 0.65,1.46 2.9,0.76 4.08,0.62 c 4.07,0.2 9.03,0.53 13.01,-0.04 c -0.89,0.86 -1,1.83 -0.32,2.89 c -0.77,0.2 -1.56,0.32 -2.35,0.36 c -4.34,0.06 -8.67,0.01 -13.01,-0.18 c -1.3,0.19 -1.88,0.97 -1.73,2.36 c 0.07,52.35 0.1,104.7 0.07,157.05 c 0.17,0.97 0.75,1.52 1.73,1.65 c 5.09,-0.18 10.19,-0.16 15.28,0.06 c -0.05,0.84 -0.07,1.68 -0.04,2.53 c -4.62,-0.17 -9.22,-0.02 -13.81,0.45 c -0.88,-0.16 -2.32,-0.74 -2.87,0.35 c -0.23,5.11 -0.38,10.23 -0.47,15.36 c -1.01,1.12 -0.37,2.75 -1.99,3.4 c -0.32,-2.29 -0.46,-4.59 -0.44,-6.9 c -0.02,-65.33 -0.02,-130.65 0,-195.97 c 0.65,-8.34 4.32,-15.05 11,-20.15 c 4.6,-3.3 9.73,-5.09 15.39,-5.35 c 66,-0.04 132,-0.01 198,0.09 c 9.6,1.07 16.88,5.76 21.85,14.07 c 1.46,2.69 2.43,5.55 2.91,8.58 Z"/>
  </g>
  <g>
    <path fill="#da9e69" stroke="#da9e69" stroke-width="0.5" d="M 249.24,54.78 c 5.37,0.17 10.75,0.35 16.12,0.55 c 0.59,0.56 0.86,1.27 0.8,2.13 c 0.19,52.04 0.19,104.09 0.01,156.12 c 0.46,3.33 -4.19,2.92 -6.17,2.23 c 0.75,-0.6 1.14,-1.37 1.19,-2.32 c -0.71,-9.99 -0.26,-20 -0.01,-30 c -0.18,-42 -0.18,-84 -0.01,-126 c -0.07,-1.04 -0.62,-1.64 -1.65,-1.79 c -2.84,-0.08 -5.68,-0.01 -8.5,0.23 c -0.67,-0.2 -1.34,-0.25 -2.02,-0.15 c 0.08,-0.33 0.16,-0.67 0.24,-1 Z"/>
  </g>
  <g>
    <path fill="#3a854a" stroke="#3a854a" stroke-width="0.5" d="M 236.41,52.11 c 1.68,-0.66 2.61,-0.12 2.79,1.61 c -3.34,2.28 -5.31,5.71 -5.52,9.77 c -0.01,38.68 -0.02,77.37 -0.03,116.05 c -0.03,0.78 0.09,1.53 0.35,2.27 c -0.25,0.07 -0.49,0.15 -0.73,0.23 c -0.2,-0.38 -0.51,-0.64 -0.92,-0.76 c -1.15,0.3 -2.33,0.46 -3.52,0.46 c -1.15,-38.93 -0.32,-78.19 -0.65,-117.27 c 0.23,-5.26 4.12,-9.7 8.23,-12.36 Z"/>
  </g>
  <g>
    <path fill="#f4e6d5" d="M 270.23,56.02 c -0.27,0.82 -0.4,1.67 -0.4,2.54 c 0.04,58.66 0.07,117.33 0.08,175.99 c 0.16,1.13 -0.25,1.96 -1.21,2.49 c 0.12,-60.84 0.17,-121.68 0.15,-182.53 c -0.12,-5.67 -0.14,-11.34 -0.06,-17.01 c -0.04,-1.61 -0.19,-3.2 -0.46,-4.79 c -0.48,-3.03 -1.45,-5.89 -2.91,-8.58 c -4.97,-8.31 -12.25,-13 -21.85,-14.07 c -66,-0.1 -132,-0.13 -198,-0.09 c -5.66,0.26 -10.79,2.05 -15.39,5.35 c -0.19,-1.09 -0.35,-2.14 -0.49,-3.14 c 0.59,-0.33 1.21,-0.58 1.86,-0.74 c 0.49,0.18 0.99,0.21 1.49,0.07 c 2.76,-1.6 5.41,-2.75 8.44,-3.54 c 66.35,0.03 132.7,0.02 199.05,-0.03 c 1.7,-0.09 3.36,0.15 4.96,0.7 c 2.14,-1.21 7.72,2.49 10.15,3.07 c 2.26,0.36 3.22,-0.22 2.92,2.29 c 0.96,0.7 1.94,1.37 2.95,2.02 c 12.07,11.05 9.59,25.12 8.72,40 Z"/>
  </g>
  <g>
    <path fill="#f1c490" stroke="#f1c490" stroke-width="0.5" d="M 243.04,183.96 c -0.25,1.28 -0.16,2.54 0.26,3.79 c -2.23,0.84 -4.5,1.59 -6.79,2.26 c -35.47,9.03 -70.65,19.61 -106.21,28.18 c -0.07,-2.34 -0.5,-4.59 -1.28,-6.77 c 0.39,-0.86 1.06,-1.42 2.01,-1.68 c 0.48,0.15 0.97,0.19 1.47,0.13 c 29.29,-6.94 58.65,-13.88 87.84,-21.23 c 4.75,-0.7 18.97,-4.83 22.7,-4.68 Z"/>
  </g>
  <g>
    <path fill="#84562c" d="M 268.33,32.71 c 0.27,1.59 0.42,3.18 0.46,4.79 c -0.08,5.67 -0.06,11.34 0.06,17.01 c 0.02,60.85 -0.03,121.69 -0.15,182.53 c -0.06,0.42 -0.12,0.85 -0.18,1.27 c -0.88,-0.34 -1.67,-0.83 -2.37,-1.46 c 0.18,-5.06 0.66,-12.32 -0.29,-17.15 c -0.78,-1.43 -4.49,-0.98 -5.9,-0.88 c -3.59,-0.06 -7.18,-0.09 -10.77,-0.09 c 0.68,-0.94 0.57,-1.78 -0.34,-2.5 c 3.23,-0.38 8.24,0.54 11.15,-0.42 c 1.98,0.69 6.63,1.1 6.17,-2.23 c 0.18,-52.03 0.18,-104.08 -0.01,-156.12 c 0.06,-0.86 -0.21,-1.57 -0.8,-2.13 c -5.37,-0.2 -10.75,-0.38 -16.12,-0.55 c -0.16,-0.85 -0.27,-1.72 -0.33,-2.58 c 4.1,0.21 8.2,0.17 12.3,-0.11 c 1.68,0.31 3.35,0.29 5.02,-0.06 c 0.59,-0.33 0.9,-0.83 0.93,-1.52 c 0.03,-5.36 -0.02,-10.72 -0.15,-16.08 c 0.13,-0.81 0.57,-1.38 1.32,-1.72 Z"/>
  </g>
  <g>
    <path fill="#fad2a7" stroke="#fad2a7" stroke-width="0.5" d="M 66.82,13.13 c 3.22,-0.41 6.45,-0.58 9.71,-0.5 c 47.33,0.08 94.66,0.1 141.99,0.04 c 0.89,0.07 1.78,0.22 2.65,0.44 c 0.19,1.46 0.51,3.9 -1.69,3.81 c -50.33,0.04 -100.65,0.02 -150.98,-0.05 c -2.08,0.31 -1.88,-2.41 -1.68,-3.74 Z"/>
  </g>
  <g>
    <path fill="#fdd1a4" d="M 22.56,58 c -0.02,-3.09 3.65,-2.56 3.22,-0.54 c -0.08,41.02 -0.04,82.03 0.12,123.05 c 0.04,9.01 -0.11,18.01 -0.45,27 c 0.29,1.99 0.43,3.99 0.4,6 c 0.15,2.65 -3.72,2.11 -3.24,-1.01 c 0.15,-51.5 0.13,-103 -0.05,-154.5 Z"/>
  </g>
  <g>
    <path fill="#8dc879" d="M 46.61,54.79 c 2.99,2.94 5.35,6.26 5.16,10.65 c -0.13,46.69 -0.12,93.38 0.03,140.07 c 0.04,2.94 -0.87,5.54 -2.72,7.82 c -0.46,-0.13 -0.76,-0.42 -0.92,-0.86 c 0.53,-2.96 0.83,-5.95 0.89,-8.98 c 0.03,-46 0.07,-91.99 0.12,-137.99 c -0.15,-1.4 0.26,-4.53 -0.98,-5.47 c -0.47,-1 -4.86,-5.14 -1.58,-5.24 Z"/>
  </g>
  <g>
    <path fill="#fde19d" stroke="#fde19d" stroke-width="0.5" d="M 63.17,16.96 c -16.49,-1.13 -30.93,-1.78 -37.11,16.52 c -0.52,6.21 -0.5,12.41 0.06,18.62 c -1.18,0.14 -3.43,0.84 -4.08,-0.62 c -0.31,-6.29 -0.19,-12.58 0.37,-18.86 c 2.2,-11.31 11.96,-18.83 23.16,-19.83 c 5.66,-0.09 11.31,-0.06 16.95,0.08 c 1.41,0.74 0.65,2.85 0.65,4.09 Z M 254.28,17.06 c 0.2,0.64 0.49,1.23 0.88,1.78 c -10.44,-3.24 -19.38,-2.41 -30.11,-1.79 c -0.73,-2.37 -0.78,-4.7 2.44,-4.47 c 4.67,0.06 9.35,0.11 14.02,0.15 c 2.7,-0.21 11.46,2.04 12.77,4.33 Z M 24.95,219.23 c 0.58,0.4 1.14,0.82 1.69,1.25 c -0.6,0.9 -0.91,1.9 -0.94,2.99 c 0.02,5.63 0.02,11.25 -0.01,16.88 c -0.79,1.42 -1.91,-0.99 -2.49,-1.38 c -0.7,-1.27 -1.23,-2.62 -1.59,-4.03 c 0.09,-5.13 0.24,-10.25 0.47,-15.36 c 0.55,-1.09 1.99,-0.51 2.87,-0.35 Z"/>
  </g>
  <g>
    <path fill="#f2cb75" stroke="#f2cb75" stroke-width="0.5" d="M 255.16,18.84 c 7.13,10.46 6.36,21.15 6.05,33.25 c -4.1,0.28 -8.2,0.32 -12.3,0.11 c -0.22,-0.89 -0.19,-1.76 0.1,-2.62 c 1.48,-1.41 2.86,-2.92 4.15,-4.52 c 10.34,-15.04 -11.2,-32.92 -24.49,-18 c -0.36,0.43 -0.6,0.93 -0.72,1.48 c -0.39,0.22 -0.78,0.45 -1.18,0.67 c -0.68,-0.07 -1.37,-0.19 -2.04,-0.35 c -0.23,-3.34 -0.48,-8.72 0.32,-11.81 c 10.73,-0.62 19.67,-1.45 30.11,1.79 Z M 63.17,16.96 c 0.81,2.47 -0.12,9.41 0.85,11.08 c -1.21,1.3 -2.51,1.4 -3.9,0.31 c -12.58,-18.04 -39.13,2.94 -23.35,19.41 c 1.54,1.4 2.61,1.96 2.36,4.3 c -3.98,0.57 -8.94,0.24 -13.01,0.04 c -0.56,-6.21 -0.58,-12.41 -0.06,-18.62 c 6.18,-18.3 20.62,-17.65 37.11,-16.52 Z M 24.95,219.23 c 4.59,-0.47 9.19,-0.62 13.81,-0.45 c 0.39,1.62 -0.14,2.92 -1.57,3.89 c -0.87,1.02 -1.69,2.09 -2.45,3.2 c -4.07,6.04 -3.48,12.71 1.09,18.25 c 6.28,7.31 17.37,6.97 23.2,-0.62 c 1.35,-1.06 3.21,-2.74 4.51,-0.52 c 0.24,1.85 0.76,9.88 -0.32,11.11 c -12.01,-0.87 -20.59,0.91 -31.61,-5.36 c -2.38,-2.35 -4.88,-4.54 -7.5,-6.57 c -0.94,-0.85 -1.24,-1.92 -0.91,-3.19 c 0.58,0.39 1.7,2.8 2.49,1.38 c 0.03,-5.63 0.03,-11.25 0.01,-16.88 c 0.03,-1.09 0.34,-2.09 0.94,-2.99 c -0.55,-0.43 -1.11,-0.85 -1.69,-1.25 Z"/>
  </g>
  <g>
    <path fill="#deaa62" stroke="#deaa62" stroke-width="0.5" d="M 259.96,218.82 c 1.41,-0.1 5.12,-0.55 5.9,0.88 c 0.95,4.83 0.47,12.09 0.29,17.15 c -2.52,12.82 -13.1,21.91 -26.32,21.89 c -1.23,0.09 -2.46,0.13 -3.7,0.12 c -3.85,-0.14 -7.68,-0.48 -11.47,-1.02 c -0.22,-4.9 -0.45,-9.83 -0.68,-14.77 c 0.19,-0.3 0.43,-0.55 0.72,-0.74 c 0.36,3.4 0.45,6.8 0.29,10.22 c 0.02,0.51 0.24,0.89 0.66,1.14 c 5.29,0 10.56,-0.05 15.82,-0.13 c 11.25,-1.62 19.36,-10.68 19.78,-22.08 c -0.56,-3.08 0.85,-10.49 -1.29,-12.66 Z M 24.11,242.16 c 2.62,2.03 5.12,4.22 7.5,6.57 c 11.02,6.27 19.6,4.49 31.61,5.36 c 0.17,1.66 0.13,3.32 -0.13,4.97 c -4.1,-0.82 -11.91,-0.1 -16.44,-0.42 c -9.59,-0.74 -17.24,-5.46 -22.12,-13.72 c -0.39,-0.88 -0.53,-1.8 -0.42,-2.76 Z"/>
  </g>
  <g>
    <path fill="#71602e" d="M 243.3,187.75 c 1.99,0.41 1.73,2.62 0.67,3.82 c -2.44,0.14 -6.34,0.71 -8.02,2.68 c -1.1,-0.02 -2.04,0.35 -2.84,1.11 c -5.36,-0.63 -16.71,4.88 -23.45,4.94 c -0.86,0.35 -1.64,0.84 -2.32,1.48 c -10.01,1.34 -19.62,6.1 -29.66,7.41 c -8.05,3.92 -17.91,4.31 -26.35,7.55 c -5.5,0.05 -18.36,5.86 -22.29,5.01 c 0.57,-1.13 1,-2.32 1.26,-3.56 c 35.56,-8.57 70.74,-19.15 106.21,-28.18 c 2.29,-0.67 4.56,-1.42 6.79,-2.26 Z"/>
  </g>
  <g>
    <path fill="#89c176" d="M 221.15,38.06 c -2.52,2.27 -5.48,3.43 -8.88,3.48 c -42.25,0.12 -84.48,-0.49 -126.75,0.18 c -6,-0.65 -14.2,1.21 -18.7,-3.76 c 0.14,-0.58 0.37,-1.12 0.71,-1.61 c 2,2.16 5.34,1.88 8.03,2.35 c 45.89,0.19 91.79,0.15 137.68,-0.12 c 2.26,-0.07 4.44,-0.52 6.53,-1.37 c 0.66,-0.06 1.12,0.22 1.38,0.85 Z"/>
  </g>
  <g>
    <path fill="#896139" d="M 21.61,234.94 c 0.36,1.41 0.89,2.76 1.59,4.03 c -0.33,1.27 -0.03,2.34 0.91,3.19 c -0.11,0.96 0.03,1.88 0.42,2.76 c 4.88,8.26 12.53,12.98 22.12,13.72 c 4.53,0.32 12.34,-0.4 16.44,0.42 c 0.24,0.68 0.74,1 1.49,0.94 c 10.63,-0.01 21.27,-0.01 31.9,-0.01 c 1.17,0.16 2.04,-0.26 2.62,-1.24 c 2.92,-0.07 5.84,-0.08 8.76,-0.04 c 0.31,0.75 0.86,1.18 1.67,1.27 c 9.33,-0.06 18.67,-0.04 28,0.06 c 1.15,0.15 2.01,-0.26 2.58,-1.23 c 0.93,0.01 1.86,0.01 2.79,-0.01 c 0.27,0.72 0.78,1.1 1.55,1.16 c 11.7,-0.03 23.39,-0.02 35.09,0.02 c 1.15,0.13 2.01,-0.29 2.59,-1.27 c 8.28,-0.06 16.56,-0.05 24.84,0.05 c 0.58,0.93 1.44,1.3 2.56,1.11 c 8,-0.09 16,-0.08 23.99,0.04 c 1.08,0.12 1.95,-0.23 2.61,-1.05 c 1.24,0.01 2.47,-0.03 3.7,-0.12 c 1.17,1.85 4.93,1.2 6.68,0.58 c 0.34,0.36 0.51,0.8 0.53,1.31 c -3.17,0.48 -6.37,0.67 -9.58,0.57 c -64.66,0.06 -129.32,0.01 -193.98,-0.15 c -2.74,-0.25 -5.35,-0.96 -7.83,-2.13 c -8.9,-4.09 -14.24,-10.95 -16.03,-20.58 c 1.62,-0.65 0.98,-2.28 1.99,-3.4 Z"/>
  </g>
  <g>
    <path fill="#f5d07e" stroke="#f5d07e" stroke-width="0.5" d="M 249.19,218.73 c 3.59,0 7.18,0.03 10.77,0.09 c 2.14,2.17 0.73,9.58 1.29,12.66 c -0.42,11.4 -8.53,20.46 -19.78,22.08 c -5.26,0.08 -10.53,0.13 -15.82,0.13 c -0.42,-0.25 -0.64,-0.63 -0.66,-1.14 c 0.16,-3.42 0.07,-6.82 -0.29,-10.22 c 1.09,-0.32 2.11,-0.18 3.08,0.4 c 17.48,18.9 39.16,-6.97 21.75,-20.72 c -0.71,-1.04 -0.83,-2.13 -0.34,-3.28 Z"/>
  </g>
  <g>
    <path fill="#6b5d28" d="M 235.9,181.16 c 1.01,1.37 3.1,0.06 4.2,-0.52 c 0.34,-0.02 0.68,-0.04 1.02,-0.05 c 0.95,0.26 1.83,0.64 2.65,1.12 c 0.2,0.92 -0.05,1.67 -0.73,2.25 c -3.73,-0.15 -17.95,3.98 -22.7,4.68 c -29.19,7.35 -58.55,14.29 -87.84,21.23 c -0.5,0.06 -0.99,0.02 -1.47,-0.13 c -1.2,-0.43 -2.47,-0.73 -3.79,-0.92 c 0.01,-0.27 0.16,-0.43 0.46,-0.47 c 13.45,-3.13 26.87,-6.42 40.26,-9.86 c 2.88,-0.34 5.71,-0.89 8.51,-1.64 c 14.1,-3.47 28.19,-6.97 42.27,-10.47 c 0.93,-0.05 1.85,-0.14 2.77,-0.27 c 3.69,-0.88 7.29,-1.95 10.83,-3.21 c 0.38,-0.21 0.7,-0.5 0.93,-0.86 c 0.24,-0.08 0.48,-0.16 0.73,-0.23 c 0.63,-0.22 1.27,-0.44 1.9,-0.65 Z"/>
  </g>
  <g>
    <path fill="#8ac175" stroke="#8ac175" stroke-width="0.5" d="M 242.07,54.09 c 0.95,0.46 1.2,1.21 0.76,2.24 c -1.86,2.02 -2.92,4.4 -3.19,7.13 c 0.05,36.01 0.08,72.01 0.1,108.02 c 0.05,2.36 -0.08,4.71 -0.38,7.04 c 0.36,0.67 0.6,1.38 0.74,2.12 c -1.1,0.58 -3.19,1.89 -4.2,0.52 c 0.4,-6.53 0.56,-13.07 0.46,-19.62 c -0.11,-33.02 -0.12,-66.04 -0.04,-99.06 c -0.11,-1.44 3.17,-6.19 4.1,-7.58 c 0.56,-0.24 1.11,-0.51 1.65,-0.81 Z M 222.01,234.17 c -0.02,1.76 1.12,2.01 1.74,3.35 c -1.64,1.18 -2.52,-1.35 -3.46,-2.25 c -2.44,-1.66 -5.9,-2.32 -8.79,-2.63 c -34.03,0.1 -68.05,0.09 -102.07,-0.03 c 0.72,-0.2 1.22,-0.65 1.51,-1.32 c 1.58,-0.94 3.3,-1.45 5.15,-1.54 c 0.79,-0.29 1.6,-0.44 2.44,-0.47 c 30.67,-0.03 61.34,-0.02 92,0.04 c 4.95,0.34 8.36,0.68 11.48,4.85 Z"/>
  </g>
  <g>
    <path fill="#c3835e" stroke="#c3835e" stroke-width="0.5" d="M 126.71,216.08 c -0.47,-0.57 -1.07,-0.78 -1.78,-0.62 c -12.18,3.68 -24.56,5.47 -36.58,9.2 c -6.43,0.43 -11.85,3.46 -18.09,4.42 c -0.83,-1.38 -1.95,-3.22 0.43,-3.81 c 16.05,-3.83 32.06,-7.81 48.02,-11.94 c 2.21,-0.41 4.42,-0.8 6.62,-1.16 c 2,0.38 1.66,2.4 1.38,3.91 Z"/>
  </g>
  <g>
    <path fill="#945735" stroke="#945735" stroke-width="0.5" d="M 126.71,216.08 c 0.95,0.8 1.19,1.74 0.7,2.83 c -0.93,0.47 -1.88,0.87 -2.87,1.19 c -16.82,4.89 -34.42,8.67 -51.05,13.94 c -3.1,0.92 -3.6,-2.84 -3.23,-4.96 c 6.24,-0.96 11.66,-3.99 18.09,-4.42 c 12.02,-3.73 24.4,-5.52 36.58,-9.2 c 0.71,-0.16 1.31,0.05 1.78,0.62 Z"/>
  </g>
  <g>
    <path fill="#7ab867" d="M 48.19,60.03 c 1.24,0.94 0.83,4.07 0.98,5.47 c -0.05,46 -0.09,91.99 -0.12,137.99 c -0.06,3.03 -0.36,6.02 -0.89,8.98 c 0.16,0.44 0.46,0.73 0.92,0.86 c -1.02,1.35 -2.13,2.63 -3.32,3.83 c -0.49,0.54 -1,1.05 -1.53,1.54 c -1.79,0.83 -2.43,0.28 -1.92,-1.65 c 0.91,-2.04 0.35,-4.07 2.23,-5.71 c 0.33,0.45 0.67,0.9 1.02,1.32 c 3.29,-1.8 2.36,-7.92 2.68,-11.09 c -0.04,-47.18 -0.06,-94.36 -0.05,-141.54 Z"/>
  </g>
  <g>
    <path fill="#6f804b" d="M 67.97,240.91 c 0.81,0.31 1.66,0.47 2.53,0.47 c 50.51,-0.06 101.02,-0.09 151.53,-0.1 c -0.08,0.26 -0.15,0.53 -0.23,0.79 c -0.2,0.03 -0.39,0.06 -0.59,0.09 c -5.23,-0.25 -10.48,-0.39 -15.74,-0.44 c -41,0.1 -82,0.07 -122.99,-0.11 c -4.33,0.03 -8.65,0.06 -12.98,0.1 c -0.89,0.06 -1.76,0.21 -2.62,0.45 c -0.2,-0.06 -0.4,-0.13 -0.6,-0.19 c -0.2,-0.84 1.19,-0.92 1.69,-1.06 Z"/>
  </g>
  <g>
    <path fill="#d9a660" stroke="#d9a660" stroke-width="0.5" d="M 254.28,17.06 c 0.62,-0.05 1.18,0.1 1.69,0.44 c 11.96,10.08 10.43,20.31 10.26,34.53 c -1.67,0.35 -3.34,0.37 -5.02,0.06 c 0.31,-12.1 1.08,-22.79 -6.05,-33.25 c -0.39,-0.55 -0.68,-1.14 -0.88,-1.78 Z"/>
  </g>
  <g>
    <path fill="#cabf8a" d="M 66.88,242.16 c 0.86,-0.24 1.73,-0.39 2.62,-0.45 c 4.33,-0.04 8.65,-0.07 12.98,-0.1 c 40.99,0.18 81.99,0.21 122.99,0.11 c 5.26,0.05 10.51,0.19 15.74,0.44 c -0.06,0.33 -0.11,0.65 -0.17,0.98 c -44.18,-0.04 -88.37,0.03 -132.56,0.19 c -7.17,0.06 -14.34,-0.05 -21.5,-0.33 c -0.04,-0.28 -0.07,-0.56 -0.1,-0.84 Z"/>
  </g>
  <g>
    <path fill="#408348" stroke="#408348" stroke-width="0.5" d="M 233.11,195.36 c 1.07,10.69 -2.09,14.96 6.89,23.24 c -1.92,0.39 -3.84,0.75 -5.77,1.08 c 0.26,-1.07 -6.4,-7.37 -6.13,-11.13 c 0.1,-2.68 0.07,-5.35 -0.1,-8.01 c -0.33,-0.59 -0.83,-0.85 -1.51,-0.77 c -2.1,0.86 -4.29,1.45 -6.56,1.75 c -4.3,2.13 -14.06,3 -19.21,4.75 c -12.17,3.25 -23.71,7.61 -36.1,9.97 c -4.7,1.67 -9.45,3.13 -14.24,4.36 c 0.27,0.31 0.62,0.49 1.05,0.51 c 20.19,0.74 40.56,-0.34 60.9,0.25 c 5.66,0.84 9.47,4.26 13.47,8.08 c 0.46,1.56 0.39,3.1 -0.21,4.62 c -3.72,-3.63 -7.35,-7.52 -13.11,-7.34 c -30.68,-0.05 -61.36,-0.09 -92.04,-0.11 c -1.83,0.36 -3.67,0.51 -5.52,0.46 c 1.38,-2.39 11.4,-4.12 14.12,-5.32 c 3.93,0.85 16.79,-4.96 22.29,-5.01 c 8.44,-3.24 18.3,-3.63 26.35,-7.55 c 10.04,-1.31 19.65,-6.07 29.66,-7.41 c 0.68,-0.64 1.46,-1.13 2.32,-1.48 c 6.74,-0.06 18.09,-5.57 23.45,-4.94 Z"/>
  </g>
  <g>
    <path fill="#4b7e47" d="M 104.96,228.64 c 3.71,0.45 7.42,0.82 11.13,1.11 c -1.85,0.09 -3.57,0.6 -5.15,1.54 c -2.81,-0.58 -10.34,3 -13.42,3.69 c -4.24,0.99 -8.53,1.78 -12.86,2.37 c -0.44,0.4 -0.63,0.91 -0.59,1.52 c -2.32,0.96 -8.66,-0.23 -11.52,0.04 c -0.74,-0.01 -1.31,-0.33 -1.68,-0.95 c 3.13,-1.18 6.32,-2.18 9.57,-3.01 c 8.36,-1.52 16.22,-4.58 24.52,-6.31 Z"/>
  </g>
  <g>
    <path fill="#865613" d="M 60.12,28.35 c -0.58,0.81 -1.34,1.4 -2.27,1.76 c -0.9,-0.65 -4.89,-0.85 -4.75,-2.13 c 0.74,-0.06 2.24,0.51 2.58,-0.44 c -13.19,-10.18 -27.32,6.7 -18.04,17.09 c 0.51,-0.39 0.72,-0.91 0.65,-1.57 c 2.25,2.2 -1.05,2.68 -1.52,4.7 c -15.78,-16.47 10.77,-37.45 23.35,-19.41 Z"/>
  </g>
  <g>
    <path fill="#865412" d="M 253.16,45.06 c -0.09,-0.88 -0.48,-1.59 -1.16,-2.12 c 1.61,-6.73 1.76,-10.58 -3.4,-15.94 c -5.11,-3.38 -10.32,-3.54 -15.65,-0.47 c -0.87,1.17 -0.52,1.73 1.04,1.67 c -1.02,0.8 -2.19,1.27 -3.52,1.44 c -1.05,-1.68 -0.75,-1.06 -2.52,-1.1 c 0.12,-0.55 0.36,-1.05 0.72,-1.48 c 13.29,-14.92 34.83,2.96 24.49,18 Z"/>
  </g>
  <g>
    <path fill="#70ae62" stroke="#70ae62" stroke-width="0.5" d="M 244.12,219.13 c -2.28,-1.44 -3.97,-3.4 -5.05,-5.88 c 0.56,-0.43 0.79,-1.01 0.7,-1.73 c -0.52,-2.32 0.68,-14.1 -0.74,-15.19 c 1.86,-0.29 3.68,-0.72 5.45,-1.28 c 0.58,0.27 0.88,0.73 0.89,1.37 c -0.03,7.05 -0.05,14.09 -0.07,21.13 c -0.03,0.81 -0.42,1.34 -1.18,1.58 Z"/>
  </g>
  <g>
    <path fill="#865b2d" d="M 266.15,236.85 c 0.7,0.63 1.49,1.12 2.37,1.46 c -2.41,12.03 -9.57,19.47 -21.48,22.32 c -0.02,-0.51 -0.19,-0.95 -0.53,-1.31 c -1.75,0.62 -5.51,1.27 -6.68,-0.58 c 13.22,0.02 23.8,-9.07 26.32,-21.89 Z"/>
  </g>
  <g>
    <path fill="#744e1c" stroke="#744e1c" stroke-width="0.5" d="M 252,42.94 c 0.68,0.53 1.07,1.24 1.16,2.12 c -1.29,1.6 -2.67,3.11 -4.15,4.52 c -0.29,0.86 -0.32,1.73 -0.1,2.62 c -1.29,-3.38 0.78,-5.45 -4.14,-4.87 c -4.77,2.13 -8.88,3.51 -13.41,-0.24 c -1.21,-2.52 -0.43,-3 -3,-5.01 c -2.68,-4.16 3.21,-8.37 0.63,-11.47 c -0.79,-0.39 -1.53,-0.85 -2.22,-1.4 c 0.4,-0.22 0.79,-0.45 1.18,-0.67 c 1.77,0.04 1.47,-0.58 2.52,1.1 c 1.33,-0.17 2.5,-0.64 3.52,-1.44 c 5.6,-3.78 14.25,2.42 15.78,8.44 c 1.08,2.62 0.17,5.31 0.65,7.97 c 0.2,-0.88 0.73,-1.44 1.58,-1.67 Z M 57.29,226.13 c -5.79,6.58 1.01,12.63 0.13,14.33 c 0.48,1.04 1.01,2.05 1.61,3.04 c -5.83,7.59 -16.92,7.93 -23.2,0.62 c 0.21,-0.92 0.67,-1.69 1.37,-2.3 c 3.71,5.03 13.3,7.15 17.51,1.66 c -5.46,-0.74 -8.9,1.81 -13.37,-3.4 c -1.76,-1.5 -2.89,-3.37 -3.39,-5.63 c -0.58,-2.71 -0.38,-5.36 0.61,-7.93 c -1.2,-0.8 -2.01,0.92 -2.52,1.76 c -0.59,-0.72 -1.02,-1.52 -1.3,-2.41 c 0.76,-1.11 1.58,-2.18 2.45,-3.2 c 1.83,-0.33 3.4,1.8 4.84,1 c 2.56,1.06 4.12,-1.52 6.53,-1.71 c 3.42,-0.62 6.71,1.68 8.73,4.17 Z M 249.53,222.01 c 17.41,13.75 -4.27,39.62 -21.75,20.72 c 1.92,-1.22 2.61,-2.91 2.06,-5.08 c -4.06,-7.38 -1,-9.32 3.57,-14.7 c 2.57,-2.14 8.9,-1.68 11.32,0.91 c 2.17,0.47 3.98,0.55 4.8,-1.85 Z M 232.21,243.26 c 3.4,4.13 12.29,4.81 16.27,0.74 c 5.28,-5.21 5.92,-10.78 1.97,-17.01 c -0.75,-1 -1.13,-0.91 -1.13,0.28 c 4.31,11.32 -6.97,18.51 -17.11,15.99 Z"/>
  </g>
  <g>
    <path fill="#b27e40" d="M 252,42.94 c -0.85,0.23 -1.38,0.79 -1.58,1.67 c -0.48,-2.66 0.43,-5.35 -0.65,-7.97 c -1.53,-6.02 -10.18,-12.22 -15.78,-8.44 c -1.56,0.06 -1.91,-0.5 -1.04,-1.67 c 5.33,-3.07 10.54,-2.91 15.65,0.47 c 5.16,5.36 5.01,9.21 3.4,15.94 Z"/>
  </g>
  <g>
    <path fill="#ad793d" d="M 232.21,243.26 c 10.14,2.52 21.42,-4.67 17.11,-15.99 c 0,-1.19 0.38,-1.28 1.13,-0.28 c 3.95,6.23 3.31,11.8 -1.97,17.01 c -3.98,4.07 -12.87,3.39 -16.27,-0.74 Z"/>
  </g>
  <g>
    <path fill="#b17c40" d="M 53.1,27.98 c -9,-3.48 -17.71,6.82 -14.81,15.08 c 0.07,0.66 -0.14,1.18 -0.65,1.57 c -9.28,-10.39 4.85,-27.27 18.04,-17.09 c -0.34,0.95 -1.84,0.38 -2.58,0.44 Z"/>
  </g>
  <g>
    <path fill="#405f27" d="M 65.92,29.22 c 51.22,0.14 102.44,0.19 153.65,0.15 c 0.91,-0.03 1.78,-0.22 2.6,-0.6 c 0.84,0.38 1.69,0.41 2.56,0.09 c 0.67,0.16 1.36,0.28 2.04,0.35 c 0.69,0.55 1.43,1.01 2.22,1.4 c 2.58,3.1 -3.31,7.31 -0.63,11.47 c 2.57,2.01 1.79,2.49 3,5.01 c 4.53,3.75 8.64,2.37 13.41,0.24 c 4.92,-0.58 2.85,1.49 4.14,4.87 c 0.06,0.86 0.17,1.73 0.33,2.58 c -0.08,0.33 -0.16,0.67 -0.24,1 c -0.24,2.3 -0.46,4.61 -0.67,6.91 c 0.06,34.95 0.04,69.91 -0.06,104.86 c 0.6,3.47 0.41,6.45 0.16,9.94 c 0.05,0.48 0.18,0.93 0.4,1.35 c -0.83,1.09 -1.54,2.7 -3.01,1.21 c 0.04,-42.53 0.04,-85.06 0.03,-127.59 c 0.07,-0.85 -0.31,-1.22 -1.13,-1.11 c -1.23,0.59 -2.11,1.5 -2.65,2.74 c -0.54,0.3 -1.09,0.57 -1.65,0.81 c -0.35,-0.45 -0.76,-0.85 -1.22,-1.18 c -0.18,-1.73 -1.11,-2.27 -2.79,-1.61 c -4.81,-2.7 -6.83,-3.4 -9.56,-8.32 c -1.03,-1.65 -0.12,-5.52 -2.83,-5.16 c 0.5,-1.24 0.76,-2.52 0.78,-3.84 c 0.79,-0.94 2.25,-2.88 -0.19,-2.94 c -4.37,0.15 -8.75,0.28 -13.14,0.37 c -48.97,0.04 -97.94,-0.06 -146.91,-0.31 c -2.12,-0.03 -2.91,0.09 -1.54,1.99 c -0.72,0.08 -1.44,0.14 -2.17,0.19 c -1.03,-0.95 -1.33,-2.08 -0.9,-3.41 c 2.03,-0.3 4.02,-0.79 5.97,-1.46 Z"/>
  </g>
  <g>
    <path fill="#68634e" d="M 251.86,177.98 c 1.46,0.8 3.62,1.26 4.03,3.12 c 0.51,2.25 0.14,4.34 -1.09,6.29 c -1.37,1.83 -3.08,2.14 -5.2,2.62 c -0.86,0.77 -0.96,1.63 -0.31,2.61 c -0.33,0.12 -0.66,0.24 -0.99,0.36 c -0.23,-0.96 -0.57,-1.86 -1.03,-2.7 c -0.9,0.18 -1.37,0.77 -1.42,1.76 c -0.63,-0.14 -1.26,-0.3 -1.88,-0.47 c 1.06,-1.2 1.32,-3.41 -0.67,-3.82 c -0.42,-1.25 -0.51,-2.51 -0.26,-3.79 c 0.68,-0.58 0.93,-1.33 0.73,-2.25 c -0.82,-0.48 -1.7,-0.86 -2.65,-1.12 c 1.55,-0.27 3.12,-0.45 4.7,-0.54 c 1.47,1.49 2.18,-0.12 3.01,-1.21 c 1.07,-0.07 2.08,-0.35 3.03,-0.86 Z M 245.84,185.06 c 0.39,3.74 10.31,-0.2 6.54,-2.71 c -2.26,-0.11 -6.34,-0.46 -6.54,2.71 Z"/>
  </g>
  <g>
    <path fill="#ecb982" stroke="#ecb982" stroke-width="0.5" d="M 251.02,55.93 c 2.82,-0.24 5.66,-0.31 8.5,-0.23 c 1.03,0.15 1.58,0.75 1.65,1.79 c -0.17,42 -0.17,84 0.01,126 c -0.25,10 -0.7,20.01 0.01,30 c -0.05,0.95 -0.44,1.72 -1.19,2.32 c -2.91,0.96 -7.92,0.04 -11.15,0.42 c -0.28,-0.88 -0.45,-1.79 -0.5,-2.72 c -0.09,-6.84 -0.11,-13.69 -0.05,-20.53 c 0.33,-0.12 0.66,-0.24 0.99,-0.36 c 2.05,-0.2 3.87,-0.97 5.44,-2.31 c 0.64,-1.3 1.27,-2.6 1.87,-3.92 c -0.16,-0.97 0.82,-5.19 -0.71,-5.29 c -0.41,-1.86 -2.57,-2.32 -4.03,-3.12 c -0.72,-1.03 -1.07,-2.18 -1.04,-3.44 c -0.11,-39.54 -0.05,-79.07 0.2,-118.61 Z M 66.98,243 c 7.16,0.28 14.33,0.39 21.5,0.33 c 44.19,-0.16 88.38,-0.23 132.56,-0.19 c -0.01,2.78 0.01,5.56 0.07,8.35 c 0.02,0.6 -0.21,1.05 -0.7,1.36 c -7.77,-0.05 -15.2,1.65 -22.95,0.44 c -41,0.04 -82,0.03 -123.01,-0.02 c -1.97,0.38 -3.93,0.5 -5.89,0.35 c -1.17,-0.16 -1.81,-0.84 -1.92,-2.03 c -0.05,-2.87 0.06,-5.73 0.34,-8.59 Z"/>
  </g>
  <g>
    <path fill="#cbbe89" d="M 249,55.78 c 0.68,-0.1 1.35,-0.05 2.02,0.15 c -0.25,39.54 -0.31,79.07 -0.2,118.61 c -0.03,1.26 0.32,2.41 1.04,3.44 c -0.95,0.51 -1.96,0.79 -3.03,0.86 c -0.22,-0.42 -0.35,-0.87 -0.4,-1.35 c 0.25,-3.49 0.44,-6.47 -0.16,-9.94 c 0.1,-34.95 0.12,-69.91 0.06,-104.86 c 0.21,-2.3 0.43,-4.61 0.67,-6.91 Z"/>
  </g>
  <g>
    <path fill="#66aa5f" stroke="#66aa5f" stroke-width="0.5" d="M 245.82,180.05 c -1.58,0.09 -3.15,0.27 -4.7,0.54 c -0.34,0.01 -0.68,0.03 -1.02,0.05 c -0.14,-0.74 -0.38,-1.45 -0.74,-2.12 c 0.3,-2.33 0.43,-4.68 0.38,-7.04 c -0.02,-36.01 -0.05,-72.01 -0.1,-108.02 c 0.27,-2.73 1.33,-5.11 3.19,-7.13 c 0.44,-1.03 0.19,-1.78 -0.76,-2.24 c 0.54,-1.24 1.42,-2.15 2.65,-2.74 c 0.82,-0.11 1.2,0.26 1.13,1.11 c 0.01,42.53 0.01,85.06 -0.03,127.59 Z"/>
  </g>
  <g>
    <path fill="#549f59" stroke="#549f59" stroke-width="0.5" d="M 62.14,41.63 c 3.47,6.08 8.29,8.49 15.34,8.49 c 45.38,-0.12 90.75,-0.16 136.12,-0.13 c 5.71,0.54 10.3,-6.8 13.25,-6.2 c 2.73,4.92 4.75,5.62 9.56,8.32 c -4.11,2.66 -8,7.1 -8.23,12.36 c 0.33,39.08 -0.5,78.34 0.65,117.27 c -5.1,2.32 -10.37,2.09 -15.47,3.96 c -2.81,0.19 -5.5,0.87 -8.08,2.04 c -2.78,0.16 -5.45,0.81 -8.01,1.96 c -7.97,1.53 -15.41,2.98 -23.01,5.92 c -1.6,0.11 -3.19,0.24 -4.79,0.4 c -15.32,3.82 -30.51,7.41 -45.84,11.26 c -19.79,6.29 -40.5,9.26 -60.34,15.54 c -4.29,1.4 -6.26,-3.04 -9.47,-4.81 c 2.87,-2.06 5.94,-7 6.14,-10.45 c -0.08,-45.35 -0.08,-90.7 -0.01,-136.04 c 0.1,-8.44 -0.43,-13.22 -7.41,-18.47 c -0.19,-0.61 -0.11,-1.19 0.26,-1.75 c 6.24,-2.63 5.86,-4.26 9.34,-9.67 Z M 121.56,82.86 c -5.51,-14.18 -18.2,-16.03 -31.87,-12.63 c -14.84,10.07 -16.54,15.42 -13.76,33.28 c 0.12,0.63 0.43,1.14 0.94,1.53 c 1.28,2.06 2.25,4.27 2.91,6.61 c 4.47,7.92 10.36,10.04 18.9,12.06 c -0.68,5.26 -0.15,10.41 1.61,15.42 c 0.15,11.24 9.61,17.42 19.81,18.92 c -0.07,3.16 -0.13,6.33 -0.16,9.5 c 0.07,0.75 0.47,1.23 1.19,1.42 c 0.28,30.92 49.29,29.12 46.58,-3.06 c 0.45,-2.59 0.5,-5.19 0.14,-7.81 c 12.05,-0.8 20.69,-9.99 21.27,-21.97 c 1.6,-1.86 -0.09,-9.86 0.9,-12.45 c 2.47,-0.41 4.9,-1.05 7.29,-1.91 c 4.97,-1.56 13.35,-9.4 12.49,-14.8 c 0.72,-0.88 1.21,-1.88 1.46,-2.99 c 1.13,-1.02 1.93,-7.77 1.98,-9.47 c 0.33,-18.41 -18.12,-30.54 -35.31,-24.03 c -5.6,3.21 -8.12,5.47 -11.87,10.62 c -1.26,-0.26 -2,-4.22 -3.52,-5.12 c -2.54,-1.76 -5.05,-3.58 -7.52,-5.45 c -8.36,-1.52 -11.85,-4.16 -20.26,-0.29 c -2.64,0.68 -7.33,5 -9.79,6.28 c -1.24,2.05 -2.37,4.17 -3.41,6.34 Z M 234.23,219.68 c -3.76,1.88 -4.12,3.43 -6.62,6.37 c -0.27,1.32 -0.87,2.45 -1.81,3.39 c -4,-3.82 -7.81,-7.24 -13.47,-8.08 c -20.34,-0.59 -40.71,0.49 -60.9,-0.25 c -0.43,-0.02 -0.78,-0.2 -1.05,-0.51 c 4.79,-1.23 9.54,-2.69 14.24,-4.36 c 12.39,-2.36 23.93,-6.72 36.1,-9.97 c 5.15,-1.75 14.91,-2.62 19.21,-4.75 c 2.27,-0.3 4.46,-0.89 6.56,-1.75 c 0.68,-0.08 1.18,0.18 1.51,0.77 c 0.17,2.66 0.2,5.33 0.1,8.01 c -0.27,3.76 6.39,10.06 6.13,11.13 Z"/>
  </g>
  <g>
    <path fill="#3e814e" stroke="#3e814e" stroke-width="0.5" d="M 167.71,165.91 c 2.71,32.18 -46.3,33.98 -46.58,3.06 c 0.04,-0.25 0.16,-0.43 0.37,-0.55 c 1.15,4.51 2.24,6.61 5.86,9.65 c 0.88,3.14 7.31,5.54 10.08,7.05 c 17.47,1.48 24.35,-3.01 30.27,-19.21 Z"/>
  </g>
  <g>
    <path fill="#cfdddf" stroke="#cfdddf" stroke-width="0.5" d="M 161.07,150.1 c 5.56,6.21 4.35,14.87 1.42,21.92 c -9.03,15.72 -30.78,14.63 -38,-2.07 c -0.18,-0.65 -0.28,-1.31 -0.31,-1.98 c 0.63,0.06 1.19,0.28 1.69,0.66 c 8.27,8.72 15.02,9.99 26.42,5.21 c 1,-1.14 8.35,-5.3 3.81,-6.45 c 2.21,0.06 3.58,-0.99 4.11,-3.13 c 1.64,-4.43 0.28,-9.5 0.86,-14.16 Z"/>
  </g>
  <g>
    <path fill="#fbfcfb" stroke="#fbfcfb" stroke-width="0.5" d="M 139.99,140.65 c 9.53,-0.24 15.37,1.36 21.08,9.45 c -0.58,4.66 0.78,9.73 -0.86,14.16 c -1.42,-1.09 -5.52,-2.03 -6.13,0.34 c -0.29,1.63 0.39,2.55 2.02,2.79 c 4.54,1.15 -2.81,5.31 -3.81,6.45 c -11.4,4.78 -18.15,3.51 -26.42,-5.21 c -0.5,-0.38 -1.06,-0.6 -1.69,-0.66 c -2.44,-6.91 -0.65,-11.51 1.64,-17.93 c 1.38,-0.87 2.46,-2.02 3.26,-3.46 c 1.48,-0.8 2.81,-1.79 4.01,-2.98 c 2.23,-1.13 4.53,-2.11 6.9,-2.95 Z M 131.32,158.77 c 0.54,2.49 4.07,3.46 4.89,0.78 c 0.75,-4.04 -4.69,-4.89 -4.89,-0.78 Z M 151.22,158.99 c 0.16,2.32 3.13,2.95 4.68,1.35 c 1.85,-4.94 -5.33,-5.76 -4.68,-1.35 Z M 139.06,163.99 c 1.93,4.73 9.78,3.51 9.61,-1.36 c -0.52,-0.46 -1.07,-0.46 -1.65,-0.01 c -3.62,5.37 -7.74,-3.2 -7.96,1.37 Z M 128.66,164.98 c 0.73,3.57 3.07,2.79 5.6,1.85 c 3.44,-4.19 -4.55,-5.62 -5.6,-1.85 Z"/>
  </g>
  <g>
    <path fill="#388147" stroke="#388147" stroke-width="0.5" d="M 189.12,136.13 c -0.58,11.98 -9.22,21.17 -21.27,21.97 c -0.59,-1.94 -1.13,-3.91 -1.62,-5.91 c 7.73,0.68 14.17,-3.86 19.2,-9.3 c 1.09,-1 2.58,-6.67 3.69,-6.76 Z"/>
  </g>
  <g>
    <path fill="#308048" stroke="#308048" stroke-width="0.5" d="M 183.3,118.02 c 2.52,1.41 4.33,10.5 3.39,13.37 c -1.99,12.1 -10.3,17.28 -21.71,18.58 c -1.65,-2.13 -3.37,-4.22 -5.17,-6.26 c 0.24,-0.24 0.46,-0.49 0.66,-0.76 c -0.03,-0.61 0.06,-1.18 0.25,-1.7 c 0.88,0.64 1.82,1.21 2.82,1.71 c 1.4,0.09 2.75,-0.12 4.06,-0.62 c 0.84,0.19 1.68,0.24 2.52,0.15 c 10.52,-6.14 13.02,-12.35 13.18,-24.47 Z"/>
  </g>
  <g>
    <path fill="#468c57" stroke="#468c57" stroke-width="0.5" d="M 168.98,107.61 c 5.71,2.02 9.53,3.26 13.33,8.44 c 0.25,0.7 0.58,1.36 0.99,1.97 c -0.16,12.12 -2.66,18.33 -13.18,24.47 c -0.84,0.09 -1.68,0.04 -2.52,-0.15 c -1.31,0.5 -2.66,0.71 -4.06,0.62 c -1,-0.5 -1.94,-1.07 -2.82,-1.71 c -0.19,0.52 -0.28,1.09 -0.25,1.7 c -0.2,0.27 -0.42,0.52 -0.66,0.76 c -1.38,0.38 -3.94,-2.36 -5.69,-2.33 c -1.86,-2.07 -4.16,-3.25 -6.91,-3.53 c -2.42,-6.82 -1.66,-12.61 1.08,-19.19 c 6.93,-10.22 8.78,-9.57 20.69,-11.05 Z M 151.22,117.75 c -0.24,1.86 0.52,2.97 2.29,3.33 c 1.6,-0.47 3.52,-3.07 4.99,-4.09 c 1.56,-1.37 5.89,-2.76 4.6,-5.5 c -2.13,-2.84 -10.87,3.24 -11.88,6.26 Z M 155.2,128.01 c 1.17,17.19 24.11,12.84 21.52,-1.39 c -2.1,-12.33 -19.43,-12.5 -21.52,1.39 Z"/>
  </g>
  <g>
    <path fill="#f4fbf1" stroke="#f4fbf1" stroke-width="0.5" d="M 155.2,128.01 c 2.09,-13.89 19.42,-13.72 21.52,-1.39 c 2.59,14.23 -20.35,18.58 -21.52,1.39 Z M 161.12,129.91 c -0.49,3.16 3.22,2.27 5.17,2.42 c 0.43,0.85 0.92,1.67 1.46,2.45 c 1.28,0.28 1.34,-1.22 1.59,-2.06 c 2.14,-1.84 2.24,-1.68 0.01,-3.46 c -0.41,-1.86 0.95,-10.2 -3.26,-6.69 c -1.83,2.33 -3.49,4.78 -4.97,7.34 Z"/>
  </g>
  <g>
    <path fill="#408049" d="M 209.8,106.97 c 0.86,5.4 -7.52,13.24 -12.49,14.8 c -2.39,0.86 -4.82,1.5 -7.29,1.91 c -0.99,2.59 0.7,10.59 -0.9,12.45 c -0.81,-1.84 0.56,-4.5 0.2,-6.59 c -0.33,-2.29 -0.52,-4.59 -0.56,-6.9 c -0.71,-1.08 -0.96,-2.24 -0.73,-3.48 c 2.82,-0.14 5.59,-0.59 8.31,-1.34 c 2,-0.98 4,-1.94 6.01,-2.89 c 2.84,-2.33 5.32,-4.98 7.45,-7.96 Z"/>
  </g>
  <g>
    <path fill="#487b3f" stroke="#487b3f" stroke-width="0.5" d="M 77.37,100.91 c 1.69,4.25 4.28,7.33 6.62,10.67 c 5.45,3.81 9.56,6.72 16.93,6.44 c 0.07,0.34 0.14,0.68 0.21,1.01 c -1.45,0.18 -2.05,3.56 -2.45,4.68 c -8.54,-2.02 -14.43,-4.14 -18.9,-12.06 c -0.66,-2.34 -1.63,-4.55 -2.91,-6.61 c 0.25,-1.37 0.42,-2.74 0.5,-4.13 Z"/>
  </g>
  <g>
    <path fill="#4782aa" stroke="#4782aa" stroke-width="0.5" d="M 163.09,87.07 c 0.24,-0.03 0.48,-0.07 0.72,-0.1 c 0.24,4.99 0.09,9.96 -0.47,14.92 c -0.2,1.01 -0.63,1.91 -1.28,2.69 c -5.65,2.22 -11.46,5.77 -15.29,10.54 c -1.83,0 -3.45,1.03 -5.1,-0.15 c -2.65,-2.51 -5.49,-4.78 -8.53,-6.81 c 3.08,0.57 6.18,1.1 9.27,1.56 c 11.18,0.19 17.44,-11.17 18.66,-21.01 c 0.42,-0.36 0.88,-0.37 1.38,-0.03 c 0.37,-0.46 0.58,-1 0.64,-1.61 Z"/>
  </g>
  <g>
    <path fill="#e7af3f" stroke="#e7af3f" stroke-width="0.5" d="M 118.36,85.02 c 2.48,6.73 2.14,12.22 0.53,19.07 c -0.77,0.31 -1.34,0.84 -1.72,1.58 c -6.59,1.78 -10.3,3.82 -14.36,9.57 c -8.31,-0.38 -14.12,-1.65 -19.22,-8.78 c 3.01,-0.18 9.94,3.31 13.74,3.16 c 12.99,-3.09 18.89,-6.84 19.01,-20.97 c 0.86,-1.1 1.53,-2.31 2.02,-3.63 Z"/>
  </g>
  <g>
    <path fill="#c83934" stroke="#c83934" stroke-width="0.5" d="M 203.2,80.03 c 2.73,2.4 5.24,7.79 5.64,11.47 c 1.12,14.47 -8.87,23.34 -22.76,23.89 c -2.41,-2.56 -5.01,-4.91 -7.79,-7.03 c 5.11,-0.24 9.38,1.21 14.98,-0.64 c 11.13,-6.16 13.81,-16.07 9.93,-27.69 Z"/>
  </g>
  <g>
    <path fill="#60a1cb" stroke="#60a1cb" stroke-width="0.5" d="M 163.09,87.07 c -0.06,0.61 -0.27,1.15 -0.64,1.61 c -0.5,-0.34 -0.96,-0.33 -1.38,0.03 c -1.22,9.84 -7.48,21.2 -18.66,21.01 c -3.09,-0.46 -6.19,-0.99 -9.27,-1.56 c -0.99,-0.6 -2.05,-1.06 -3.16,-1.38 c -7.56,-5.5 -6.76,-16.74 -2.88,-24.17 c 9.15,-14.29 31.15,-11.62 35.99,4.46 Z M 129.99,83.88 c -0.07,1.68 0.69,2.33 2.29,1.95 c 2.4,-2.86 5.55,-4.54 8.58,-6.55 c 2.02,-4.29 -2.91,-3.79 -5.26,-2.34 c -1.83,1.69 -5.6,4.16 -5.61,6.94 Z M 133.27,94.76 c 1.58,5.06 3.58,8.27 9.1,9.6 c 13.36,2.97 18.78,-19.38 2.14,-21.62 c -7.04,-0.71 -11.77,5.33 -11.24,12.02 Z"/>
  </g>
  <g>
    <path fill="#f2f9f7" stroke="#f2f9f7" stroke-width="0.5" d="M 133.27,94.76 c -0.53,-6.69 4.2,-12.73 11.24,-12.02 c 16.64,2.24 11.22,24.59 -2.14,21.62 c -5.52,-1.33 -7.52,-4.54 -9.1,-9.6 Z M 139.79,97.88 c -0.08,1.26 0.5,1.95 1.74,2.07 c 1.96,-0.13 3.91,-0.21 5.87,-0.24 c 1.18,-0.19 1.48,-0.77 0.9,-1.75 c -1.11,-0.18 -2.23,-0.35 -3.34,-0.53 c -0.37,-0.15 -0.57,-0.41 -0.6,-0.8 c 1.26,-1.34 2.48,-2.74 3.63,-4.18 c 1.77,-6.74 -6.8,-7.43 -8.03,-2.96 c -0.22,2.92 2.28,1.07 3.13,0.04 c 1.6,-0.5 2.47,0.09 2.62,1.77 c -1.98,2.17 -3.95,4.37 -5.92,6.58 Z"/>
  </g>
  <g>
    <path fill="#7b8755" d="M 211.26,103.98 c -0.04,-1.37 -0.2,-2.72 -0.48,-4.05 c 2.2,-10.06 -1.94,-21.06 -10.89,-26.38 c -1.69,-0.56 -3.32,-1.23 -4.92,-2.02 c -9.74,-2.46 -18.63,0.12 -24.97,7.93 c -1.28,2.16 -2.5,4.34 -3.67,6.55 c -0.88,-0.76 -1.23,-1.71 -1.07,-2.85 c 0.35,-0.66 0.61,-1.34 0.8,-2.06 c 3.75,-5.15 6.27,-7.41 11.87,-10.62 c 17.19,-6.51 35.64,5.62 35.31,24.03 c -0.05,1.7 -0.85,8.45 -1.98,9.47 Z"/>
  </g>
  <g>
    <path fill="#729148" d="M 121.56,82.86 c 0.16,0.99 0.33,1.99 0.51,2.99 c -0.3,0.07 -0.6,0.14 -0.9,0.22 c -0.76,-2.31 -1.8,-4.48 -3.12,-6.52 c -5.83,-7.37 -14.43,-9.9 -23.6,-8.38 c -2.25,0.48 -4.39,1.28 -6.41,2.39 c -1.35,1.36 -2.87,2.5 -4.54,3.42 c -5.68,6.86 -8.15,15.08 -6.13,23.93 c -0.08,1.39 -0.25,2.76 -0.5,4.13 c -0.51,-0.39 -0.82,-0.9 -0.94,-1.53 c -2.78,-17.86 -1.08,-23.21 13.76,-33.28 c 13.67,-3.4 26.36,-1.55 31.87,12.63 Z"/>
  </g>
  <g>
    <path fill="#569972" d="M 166.06,81.1 c -0.19,0.72 -0.45,1.4 -0.8,2.06 c -0.34,-0.03 -0.69,-0.06 -1.04,-0.09 c -8.15,-18.01 -34.43,-16.28 -41.34,2.31 c -0.2,0.28 -0.47,0.44 -0.81,0.47 c -0.18,-1 -0.35,-2 -0.51,-2.99 c 1.04,-2.17 2.17,-4.29 3.41,-6.34 c 2.46,-1.28 7.15,-5.6 9.79,-6.28 c 8.41,-3.87 11.9,-1.23 20.26,0.29 c 2.47,1.87 4.98,3.69 7.52,5.45 c 1.52,0.9 2.26,4.86 3.52,5.12 Z"/>
  </g>
  <g>
    <path fill="#437e51" stroke="#437e51" stroke-width="0.5" d="M 100.29,139.13 c 4.87,8.36 11.39,12.68 21.35,13.1 c -0.46,1.68 -0.71,3.41 -0.76,5.18 c -0.14,0.36 -0.4,0.57 -0.78,0.64 c -10.2,-1.5 -19.66,-7.68 -19.81,-18.92 Z"/>
  </g>
  <g>
    <path fill="#5d8279" d="M 141.26,138.18 c 0.88,-0.34 1.79,-0.51 2.74,-0.49 c 1.06,0.12 2.13,0.17 3.21,0.16 c 2.75,0.28 5.05,1.46 6.91,3.53 c 1.75,-0.03 4.31,2.71 5.69,2.33 c 1.8,2.04 3.52,4.13 5.17,6.26 c 0.34,0.78 0.76,1.52 1.25,2.22 c 0.49,2 1.03,3.97 1.62,5.91 c 0.36,2.62 0.31,5.22 -0.14,7.81 c -5.92,16.2 -12.8,20.69 -30.27,19.21 c -2.77,-1.51 -9.2,-3.91 -10.08,-7.05 c -3.62,-3.04 -4.71,-5.14 -5.86,-9.65 c -0.21,0.12 -0.33,0.3 -0.37,0.55 c -0.72,-0.19 -1.12,-0.67 -1.19,-1.42 c 0.03,-3.17 0.09,-6.34 0.16,-9.5 c 0.38,-0.07 0.64,-0.28 0.78,-0.64 c 0.05,-1.77 0.3,-3.5 0.76,-5.18 c 0.3,-0.63 0.75,-1.12 1.35,-1.47 c 0.93,-0.28 1.88,-0.52 2.83,-0.72 c -2.29,6.42 -4.08,11.02 -1.64,17.93 c 0.03,0.67 0.13,1.33 0.31,1.98 c 7.22,16.7 28.97,17.79 38,2.07 c 2.93,-7.05 4.14,-15.71 -1.42,-21.92 c -5.71,-8.09 -11.55,-9.69 -21.08,-9.45 c 0.55,-0.75 0.98,-1.58 1.27,-2.47 Z"/>
  </g>
  <g>
    <path fill="#f3e9df" stroke="#f3e9df" stroke-width="0.5" d="M 57.28,231.97 c -0.56,-4.15 5.76,-5.32 8.74,-5.53 c 1.6,1.13 2.03,6.28 2.3,8.12 c -1.18,2.95 -10.86,3.51 -11.04,-2.59 Z"/>
  </g>
  <g>
    <path fill="#fde07f" stroke="#fde07f" stroke-width="0.5" d="M 85.27,86.08 c -0.14,-0.39 -0.27,-0.77 -0.41,-1.15 c 0.38,-1.32 2.27,-5.74 3.13,-6.41 c 2.45,-1.57 9.16,-6.65 9.03,-0.05 c -0.04,0.55 -0.28,1 -0.72,1.32 c -3.5,1.35 -7.33,6.63 -11.03,6.29 Z"/>
  </g>
  <g>
    <path fill="#ebcb66" d="M 95.98,73.51 c 1.17,0.51 2.39,0.83 3.65,0.97 c -1.68,1 -1.87,2.29 -0.57,3.85 c 0.45,0.91 1.09,1.65 1.93,2.22 c 1.18,0.82 4.85,1.42 3.82,3.55 c -11.34,-5.18 -19.69,7.18 -12.79,16.65 c -2.76,0.95 -3.45,-3.14 -4.59,-4.8 c 0.45,-2.41 0.58,-4.86 0.38,-7.35 c -0.79,-0.91 -1.64,-1.75 -2.54,-2.52 c 3.7,0.34 7.53,-4.94 11.03,-6.29 c 0.44,-0.32 0.68,-0.77 0.72,-1.32 c 0.13,-6.6 -6.58,-1.52 -9.03,0.05 c -0.86,0.67 -2.75,5.09 -3.13,6.41 c -1.04,-0.59 -2.13,-0.69 -3.28,-0.32 c 3.09,-5.94 7.89,-9.64 14.4,-11.1 Z"/>
  </g>
  <g>
    <path fill="#fcf8e1" stroke="#fcf8e1" stroke-width="0.5" d="M 104.81,84.1 c 1.12,0.54 2.17,1.2 3.14,1.99 c 4.69,5.27 3.56,13.22 -2.64,16.73 c -4.16,1.94 -8.16,1.67 -12.01,-0.81 c -0.45,-0.4 -0.88,-0.82 -1.28,-1.26 c -6.9,-9.47 1.45,-21.83 12.79,-16.65 Z M 96.38,90.26 c -0.04,0.29 0.07,0.51 0.34,0.65 c 0.78,0.08 1.5,0.3 2.18,0.66 c 0.41,2.28 0.57,4.58 0.47,6.91 c 0.19,0.98 0.76,1.32 1.7,1.02 c 1.39,-1.25 0.62,-9.66 0.59,-11.81 c -1.36,-2.11 -4.26,1.56 -5.28,2.57 Z"/>
  </g>
  <g>
    <path fill="#855320" d="M 222.11,243.18 c 0.63,-0.04 1.25,-0.08 1.87,-0.11 c 0.23,4.94 0.46,9.87 0.68,14.77 c 3.79,0.54 7.62,0.88 11.47,1.02 c -0.66,0.82 -1.53,1.17 -2.61,1.05 c -7.99,-0.12 -15.99,-0.13 -23.99,-0.04 c -1.12,0.19 -1.98,-0.18 -2.56,-1.11 c 4.78,-0.03 9.56,-0.04 14.34,-0.04 c 0.11,-0.12 0.22,-0.24 0.33,-0.35 c 0.01,-4.29 0.03,-8.58 0.06,-12.87 c 0.08,-0.79 0.21,-1.56 0.41,-2.32 Z"/>
  </g>
  <g>
    <path fill="#ead26e" d="M 107.95,86.09 c 2.39,-0.62 4.16,2.76 4.77,4.62 c -0.71,2.54 -0.96,5.14 -0.73,7.79 c -0.23,1.67 -2.79,3.77 -4,4.97 c -2.02,1.22 -4.17,2.15 -6.43,2.79 c -1.53,0.08 -3.06,0.13 -4.57,0.17 c -1.1,-0.9 -2.28,-1.69 -3.53,-2.37 c -0.42,-0.66 -0.47,-1.34 -0.16,-2.05 c 3.85,2.48 7.85,2.75 12.01,0.81 c 6.2,-3.51 7.33,-11.46 2.64,-16.73 Z"/>
  </g>
  <g>
    <path fill="#f6ca43" stroke="#f6ca43" stroke-width="0.5" d="M 118.36,85.02 c -0.49,1.32 -1.16,2.53 -2.02,3.63 c -0.12,14.13 -6.02,17.88 -19.01,20.97 c -3.8,0.15 -10.73,-3.34 -13.74,-3.16 c -4.84,-6.71 -5.86,-14.38 -2.01,-21.85 c 1.15,-0.37 2.24,-0.27 3.28,0.32 c 0.14,0.38 0.27,0.76 0.41,1.15 c 0.9,0.77 1.75,1.61 2.54,2.52 c 0.2,2.49 0.07,4.94 -0.38,7.35 c 1.14,1.66 1.83,5.75 4.59,4.8 c 0.4,0.44 0.83,0.86 1.28,1.26 c -0.31,0.71 -0.26,1.39 0.16,2.05 c 1.25,0.68 2.43,1.47 3.53,2.37 c 1.51,-0.04 3.04,-0.09 4.57,-0.17 c 2.26,-0.64 4.41,-1.57 6.43,-2.79 c 1.21,-1.2 3.77,-3.3 4,-4.97 c -0.23,-2.65 0.02,-5.25 0.73,-7.79 c -0.61,-1.86 -2.38,-5.24 -4.77,-4.62 c -0.97,-0.79 -2.02,-1.45 -3.14,-1.99 c 1.03,-2.13 -2.64,-2.73 -3.82,-3.55 c -0.84,-0.57 -1.48,-1.31 -1.93,-2.22 c -1.3,-1.56 -1.11,-2.85 0.57,-3.85 c -1.26,-0.14 -2.48,-0.46 -3.65,-0.97 c 9.4,-1.6 18.52,2.61 22.38,11.51 Z"/>
  </g>
  <g>
    <path fill="#89c892" stroke="#89c892" stroke-width="0.5" d="M 151.22,117.75 c 1.01,-3.02 9.75,-9.1 11.88,-6.26 c 1.29,2.74 -3.04,4.13 -4.6,5.5 c -1.47,1.02 -3.39,3.62 -4.99,4.09 c -1.77,-0.36 -2.53,-1.47 -2.29,-3.33 Z"/>
  </g>
  <g>
    <path fill="#91c376" d="M 239.03,196.33 c 1.42,1.09 0.22,12.87 0.74,15.19 c 0.09,0.72 -0.14,1.3 -0.7,1.73 c -4.3,-4.28 -2.62,-9.85 -2.75,-15.34 c 0.47,-1.33 1.37,-1.86 2.71,-1.58 Z"/>
  </g>
  <g>
    <path fill="#5a8c4a" d="M 243.97,191.57 c 0.62,0.17 1.25,0.33 1.88,0.47 c 0.16,8.49 0.3,16.98 0.42,25.48 c 0.14,1.41 -0.92,3.57 -2.15,1.61 c 0.76,-0.24 1.15,-0.77 1.18,-1.58 c 0.02,-7.04 0.04,-14.08 0.07,-21.13 c -0.01,-0.64 -0.31,-1.1 -0.89,-1.37 c -1.77,0.56 -3.59,0.99 -5.45,1.28 c -1.34,-0.28 -2.24,0.25 -2.71,1.58 c -0.03,-1.23 -0.16,-2.45 -0.37,-3.66 c 1.68,-1.97 5.58,-2.54 8.02,-2.68 Z"/>
  </g>
  <g>
    <path fill="#7b598f" stroke="#7b598f" stroke-width="0.5" d="M 138.12,117.09 c 0.64,0.48 1.12,1.09 1.44,1.83 c 1.34,4.03 2.73,7.15 2.49,11.54 c -0.25,2.59 -0.52,5.16 -0.79,7.72 c -0.29,0.89 -0.72,1.72 -1.27,2.47 c -2.37,0.84 -4.67,1.82 -6.9,2.95 c -1.2,1.19 -2.53,2.18 -4.01,2.98 c -0.8,1.44 -1.88,2.59 -3.26,3.46 c -0.95,0.2 -1.9,0.44 -2.83,0.72 c 0.02,-0.6 -0.21,-1.05 -0.7,-1.36 c -7.73,-0.04 -15.68,-3.41 -18.38,-11.13 c 0.9,0.01 6.6,3.77 7.79,4.49 c 7.41,1.69 11.67,1.06 18.29,-3.36 c 8.11,-5.81 7.54,-13.44 8.13,-22.31 Z"/>
  </g>
  <g>
    <path fill="#9869a3" stroke="#9869a3" stroke-width="0.5" d="M 120.14,107.66 c 6.76,1.22 14.66,2.46 17.98,9.43 c -0.59,8.87 -0.02,16.5 -8.13,22.31 c -6.62,4.42 -10.88,5.05 -18.29,3.36 c -1.19,-0.72 -6.89,-4.48 -7.79,-4.49 c -4.29,-5.85 -2.92,-14.04 -0.11,-20.24 c 5.19,-6.49 7.97,-9.1 16.34,-10.37 Z M 106.83,120.07 c 2,3.05 4.93,-1.97 6.57,-3.11 c 0.99,-1.11 4.81,-1.74 4.72,-3.42 c 0.95,-6.59 -11.42,0.84 -11.29,6.53 Z M 111,128.08 c 0.18,14.61 19.69,15.05 21.68,1.21 c -1.02,-15.8 -21.07,-15.5 -21.68,-1.21 Z"/>
  </g>
  <g>
    <path fill="#fcf6f8" stroke="#fcf6f8" stroke-width="0.5" d="M 111,128.08 c 0.61,-14.29 20.66,-14.59 21.68,1.21 c -1.99,13.84 -21.5,13.4 -21.68,-1.21 Z M 117.21,124.74 c 0.36,0.42 0.8,0.71 1.33,0.88 c 1.2,-0.54 2.44,-1 3.7,-1.36 c 2.15,3.02 -2.51,2.49 -1.16,4.98 c 0.74,0.33 1.39,0.78 1.97,1.34 c 0.01,1.51 -0.76,2.21 -2.32,2.12 c -0.95,-0.6 -1.96,-1.05 -3.02,-1.36 c -0.39,0.24 -0.54,0.59 -0.43,1.05 c 0.77,1.83 2.18,2.68 4.21,2.55 c 4.21,-0.51 5.48,-2.72 3.81,-6.63 c 0.41,-2.56 1.1,-5.06 -1.97,-6.29 c -2.8,-0.77 -4.84,0.14 -6.12,2.72 Z"/>
  </g>
  <g>
    <path fill="#cfa7d4" stroke="#cfa7d4" stroke-width="0.5" d="M 106.83,120.07 c -0.13,-5.69 12.24,-13.12 11.29,-6.53 c 0.09,1.68 -3.73,2.31 -4.72,3.42 c -1.64,1.14 -4.57,6.16 -6.57,3.11 Z"/>
  </g>
  <g>
    <path fill="#98d0f2" stroke="#98d0f2" stroke-width="0.5" d="M 129.99,83.88 c 0.01,-2.78 3.78,-5.25 5.61,-6.94 c 2.35,-1.45 7.28,-1.95 5.26,2.34 c -3.03,2.01 -6.18,3.69 -8.58,6.55 c -1.6,0.38 -2.36,-0.27 -2.29,-1.95 Z"/>
  </g>
  <g>
    <path fill="#5d653e" d="M 210.78,99.93 c 0.28,1.33 0.44,2.68 0.48,4.05 c -0.25,1.11 -0.74,2.11 -1.46,2.99 c -2.13,2.98 -4.61,5.63 -7.45,7.96 c -2.01,0.95 -4.01,1.91 -6.01,2.89 c -2.72,0.75 -5.49,1.2 -8.31,1.34 c -0.44,-0.13 -0.89,-0.26 -1.34,-0.39 c 0.51,-0.58 0.96,-1.2 1.36,-1.87 c 4.16,0.9 7.41,-1.05 11.29,-2.16 c 1.12,-0.87 2.32,-1.63 3.59,-2.29 c 3.93,-3.25 5.97,-7.92 7.85,-12.52 Z"/>
  </g>
  <g>
    <path fill="#845411" d="M 34.74,225.87 c 0.28,0.89 0.71,1.69 1.3,2.41 c -1.84,4.69 -1.45,9.2 1.16,13.54 c -0.7,0.61 -1.16,1.38 -1.37,2.3 c -4.57,-5.54 -5.16,-12.21 -1.09,-18.25 Z"/>
  </g>
  <g>
    <path fill="#ac7a40" d="M 37.2,241.82 c -2.61,-4.34 -3,-8.85 -1.16,-13.54 c 0.51,-0.84 1.32,-2.56 2.52,-1.76 c -0.99,2.57 -1.19,5.22 -0.61,7.93 c 0.5,2.26 1.63,4.13 3.39,5.63 c 4.47,5.21 7.91,2.66 13.37,3.4 c -4.21,5.49 -13.8,3.37 -17.51,-1.66 Z"/>
  </g>
  <g>
    <path fill="#6a8d50" d="M 233.27,182.04 c -0.23,0.36 -0.55,0.65 -0.93,0.86 c -3.54,1.26 -7.14,2.33 -10.83,3.21 c -0.92,0.13 -1.84,0.22 -2.77,0.27 c -14.08,3.5 -28.17,7 -42.27,10.47 c -2.8,0.75 -5.63,1.3 -8.51,1.64 c -13.39,3.44 -26.81,6.73 -40.26,9.86 c -0.3,0.04 -0.45,0.2 -0.46,0.47 c -16.62,3.98 -33.26,7.9 -49.92,11.77 c -5.45,1.49 -10.89,3 -16.32,4.53 c -2.33,-0.06 -2.66,-1.04 -4.1,-2.5 c -1.62,-1.15 -3.25,-2.28 -4.89,-3.4 c 0.54,-0.5 1.15,-0.91 1.81,-1.21 c 3.21,1.77 5.18,6.21 9.47,4.81 c 19.84,-6.28 40.55,-9.25 60.34,-15.54 c 15.33,-3.85 30.52,-7.44 45.84,-11.26 c 1.6,-0.16 3.19,-0.29 4.79,-0.4 c 7.6,-2.94 15.04,-4.39 23.01,-5.92 c 2.56,-1.15 5.23,-1.8 8.01,-1.96 c 2.58,-1.17 5.27,-1.85 8.08,-2.04 c 5.1,-1.87 10.37,-1.64 15.47,-3.96 c 1.19,0 2.37,-0.16 3.52,-0.46 c 0.41,0.12 0.72,0.38 0.92,0.76 Z"/>
  </g>
  <g>
    <path fill="#e1514b" stroke="#e1514b" stroke-width="0.5" d="M 203.2,80.03 c 3.88,11.62 1.2,21.53 -9.93,27.69 c -5.6,1.85 -9.87,0.4 -14.98,0.64 c -2.46,-0.73 -4.86,-2.66 -7.47,-2.62 c 0.11,-1.7 -1.07,-2.01 -1.65,-3.39 c -8.57,-23.07 19.3,-39.46 34.03,-22.32 Z M 177.1,84.8 c 2.94,0.94 0.56,0.86 -0.07,2.85 c -0.59,2.39 -2.87,8.56 0.88,9.34 c 2.6,6 7.1,8.27 13.5,6.8 c 10.15,-3.53 9.98,-16.23 0.47,-20.29 c -0.3,-3.93 -8.06,-0.19 -10.13,-2.55 c 1.42,-0.97 3.75,-2.08 1.61,-3.95 c -3.97,-0.73 -4.79,1.38 -7.87,2.93 c -0.61,1.14 -1.12,2.32 -1.51,3.55 c -0.09,2.89 0.96,3.33 3.12,1.32 Z"/>
  </g>
  <g>
    <path fill="#fcf0ea" stroke="#fcf0ea" stroke-width="0.5" d="M 191.88,83.5 c 9.51,4.06 9.68,16.76 -0.47,20.29 c -6.4,1.47 -10.9,-0.8 -13.5,-6.8 c -2.52,-9.01 4.95,-16.53 13.97,-13.49 Z M 183.67,97 c 0.94,2.69 2.81,3.61 5.62,2.77 c 3.58,-1.29 4.27,-3.44 2.07,-6.46 c 0.22,-0.94 0.48,-1.88 0.78,-2.8 c -0.24,-2.84 -1.8,-4.04 -4.69,-3.6 c -1.86,0.01 -3,0.91 -3.41,2.68 c -0.27,3.22 3.51,-1.75 4.77,0.1 c 1.14,2.67 -1.89,1.47 -1.88,3.74 c 0.76,0.65 1.61,1.15 2.56,1.49 c 0.47,1.67 -0.19,2.45 -2,2.34 c -0.99,-0.36 -1.97,-0.73 -2.94,-1.11 c -0.44,0.13 -0.74,0.41 -0.88,0.85 Z"/>
  </g>
  <g>
    <path fill="#fc978f" stroke="#fc978f" stroke-width="0.5" d="M 181.75,80.95 c -1.82,0.97 -3.37,2.25 -4.65,3.85 c -2.16,2.01 -3.21,1.57 -3.12,-1.32 c 0.39,-1.23 0.9,-2.41 1.51,-3.55 c 3.08,-1.55 3.9,-3.66 7.87,-2.93 c 2.14,1.87 -0.19,2.98 -1.61,3.95 Z"/>
  </g>
  <g>
    <path fill="#c96a66" d="M 181.75,80.95 c 2.07,2.36 9.83,-1.38 10.13,2.55 c -9.02,-3.04 -16.49,4.48 -13.97,13.49 c -3.75,-0.78 -1.47,-6.95 -0.88,-9.34 c 0.63,-1.99 3.01,-1.91 0.07,-2.85 c 1.28,-1.6 2.83,-2.88 4.65,-3.85 Z"/>
  </g>
  <g>
    <path fill="#786c50" d="M 121.17,86.07 c 0.3,-0.08 0.6,-0.15 0.9,-0.22 c -0.09,4.56 -0.17,9.12 -0.25,13.69 c 0.58,1.83 1.02,3.69 1.31,5.58 c -0.72,0.29 -1.44,0.59 -2.17,0.88 c -1.25,-0.28 -2.51,-0.39 -3.79,-0.33 c 0.38,-0.74 0.95,-1.27 1.72,-1.58 c 1.64,-0.63 2.46,-1.86 2.47,-3.68 c 0.11,-4.79 0.05,-9.57 -0.19,-14.34 Z"/>
  </g>
  <g>
    <path fill="#876f1d" d="M 121.17,86.07 c 0.24,4.77 0.3,9.55 0.19,14.34 c -0.01,1.82 -0.83,3.05 -2.47,3.68 c 1.61,-6.85 1.95,-12.34 -0.53,-19.07 c -3.86,-8.9 -12.98,-13.11 -22.38,-11.51 c -6.51,1.46 -11.31,5.16 -14.4,11.1 c -3.85,7.47 -2.83,15.14 2.01,21.85 c 5.1,7.13 10.91,8.4 19.22,8.78 c -0.58,0.95 -1.21,1.88 -1.89,2.78 c -7.37,0.28 -11.48,-2.63 -16.93,-6.44 c -2.34,-3.34 -4.93,-6.42 -6.62,-10.67 c -2.02,-8.85 0.45,-17.07 6.13,-23.93 c 1.67,-0.92 3.19,-2.06 4.54,-3.42 c 2.02,-1.11 4.16,-1.91 6.41,-2.39 c 9.17,-1.52 17.77,1.01 23.6,8.38 c 1.32,2.04 2.36,4.21 3.12,6.52 Z"/>
  </g>
  <g>
    <path fill="#b7d0e0" d="M 245.84,185.06 c 0.2,-3.17 4.28,-2.82 6.54,-2.71 c 3.77,2.51 -6.15,6.45 -6.54,2.71 Z"/>
  </g>
  <g>
    <path fill="#d8b5b5" d="M 128.66,164.98 c 1.05,-3.77 9.04,-2.34 5.6,1.85 c -2.53,0.94 -4.87,1.72 -5.6,-1.85 Z"/>
  </g>
  <g>
    <path fill="#ab8854" d="M 255.89,181.1 c 1.53,0.1 0.55,4.32 0.71,5.29 c -0.6,1.32 -1.23,2.62 -1.87,3.92 c -1.57,1.34 -3.39,2.11 -5.44,2.31 c -0.65,-0.98 -0.55,-1.84 0.31,-2.61 c 2.12,-0.48 3.83,-0.79 5.2,-2.62 c 1.23,-1.95 1.6,-4.04 1.09,-6.29 Z"/>
  </g>
  <g>
    <path fill="#d2afad" d="M 160.21,164.26 c -0.53,2.14 -1.9,3.19 -4.11,3.13 c -1.63,-0.24 -2.31,-1.16 -2.02,-2.79 c 0.61,-2.37 4.71,-1.43 6.13,-0.34 Z"/>
  </g>
  <g>
    <path fill="#d1b7ab" d="M 164.28,129.07 c 0.4,-2.35 3.18,-3.17 2.41,0.26 c -0.51,0.59 -2.26,0.68 -2.41,-0.26 Z"/>
  </g>
  <g>
    <path fill="#f7ecdb" d="M 30.18,15.32 c -6.68,5.1 -10.35,11.81 -11,20.15 c -0.02,65.32 -0.02,130.64 0,195.97 c -0.02,2.31 0.12,4.61 0.44,6.9 c 1.79,9.63 7.13,16.49 16.03,20.58 c 2.48,1.17 5.09,1.88 7.83,2.13 c 64.66,0.16 129.32,0.21 193.98,0.15 c 3.21,0.1 6.41,-0.09 9.58,-0.57 c 11.91,-2.85 19.07,-10.29 21.48,-22.32 c 0.06,-0.42 0.12,-0.85 0.18,-1.27 c 0.96,-0.53 1.37,-1.36 1.21,-2.49 c -0.01,-58.66 -0.04,-117.33 -0.08,-175.99 c 0,-0.87 0.13,-1.72 0.4,-2.54 c 0.52,0.35 0.79,0.85 0.8,1.49 c -0.02,3.35 0.04,6.69 0.18,10.03 c -0.11,56.35 -0.16,112.69 -0.14,169.04 c -0.4,2.08 -1,4.11 -1.79,6.09 c 0.14,0.76 0.19,1.52 0.15,2.28 c -0.93,1.41 -1.91,2.79 -2.94,4.13 c -0.85,2.25 -0.31,3.08 -2.85,4.03 c -1.61,2.55 -2.52,3.7 -5.59,4.42 c -0.54,0.78 -1.14,1.52 -1.78,2.22 c -2.24,0.51 -4.22,1.51 -5.95,3.01 c -4.59,0.2 -9.19,0.34 -13.8,0.41 c -2.31,0.38 -3.68,1.22 -5.99,0.21 c -2.03,0.37 -4.04,0.28 -6.05,-0.28 c -6.35,0.12 -12.69,0.07 -19.03,-0.14 c -41.33,0.12 -82.65,0.12 -123.97,-0.01 c -3.66,0.09 -7.31,0.29 -10.96,0.6 c -0.65,-0.21 -1.31,-0.36 -1.99,-0.44 c -10,-0.08 -20.01,-0.15 -30.01,-0.19 c -1.16,-0.39 -2.22,-0.95 -3.2,-1.7 c -1.52,-0.5 -3.05,-0.97 -4.59,-1.42 c -0.06,-0.76 -0.3,-1.5 -0.72,-2.2 c -0.66,-0.14 -1.34,-0.2 -2.02,-0.17 c -1.97,-2.65 -4.21,-5.02 -6.74,-7.14 c -0.24,-0.84 -0.4,-1.71 -0.49,-2.59 c -0.51,-0.82 -1.05,-1.62 -1.6,-2.41 c -0.58,-1.99 -1.2,-3.97 -1.86,-5.94 c 0.03,-0.62 0.14,-1.23 0.32,-1.83 c -0.36,-0.97 -0.57,-1.97 -0.63,-2.99 c -0.08,-66.66 -0.04,-133.31 0.13,-199.96 c 0.36,-3.62 1.16,-7.13 2.39,-10.54 c 0.76,-0.56 1.52,-1.13 2.28,-1.71 c 0.45,-0.85 1.01,-1.63 1.67,-2.32 c 0.24,-0.74 0.49,-1.48 0.73,-2.21 c 1.19,-0.87 2.14,-1.94 2.85,-3.23 c 1.17,-0.38 2.22,-0.12 3.14,0.76 Z"/>
  </g>
  <g>
    <path fill="#4c3712" d="M 127.24,208.82 c 1.32,0.19 2.59,0.49 3.79,0.92 c -0.95,0.26 -1.62,0.82 -2.01,1.68 c 0.78,2.18 1.21,4.43 1.28,6.77 c -0.26,1.24 -0.69,2.43 -1.26,3.56 c -2.72,1.2 -12.74,2.93 -14.12,5.32 c -0.79,-0.04 -1.59,-0.07 -2.39,-0.08 c -2.53,0.5 -5.06,1.05 -7.57,1.65 c -8.3,1.73 -16.16,4.79 -24.52,6.31 c -3.25,0.83 -6.44,1.83 -9.57,3.01 c -2.18,-0.49 -4.72,0.5 -2.9,2.95 c -0.5,0.14 -1.89,0.22 -1.69,1.06 c -0.49,5.31 -0.7,10.65 -0.62,16 c -1.13,-0.32 -1.99,0.05 -2.57,1.09 c 0.26,-1.65 0.3,-3.31 0.13,-4.97 c 1.08,-1.23 0.56,-9.26 0.32,-11.11 c -1.3,-2.22 -3.16,-0.54 -4.51,0.52 c -0.6,-0.99 -1.13,-2 -1.61,-3.04 c 0.88,-1.7 -5.92,-7.75 -0.13,-14.33 c 1.36,0.03 2.59,-0.31 3.71,-1.01 c 5.43,-1.53 10.87,-3.04 16.32,-4.53 c 16.66,-3.87 33.3,-7.79 49.92,-11.77 Z M 70.26,229.08 c -0.37,2.12 0.13,5.88 3.23,4.96 c 16.63,-5.27 34.23,-9.05 51.05,-13.94 c 0.99,-0.32 1.94,-0.72 2.87,-1.19 c 0.49,-1.09 0.25,-2.03 -0.7,-2.83 c 0.28,-1.51 0.62,-3.53 -1.38,-3.91 c -2.2,0.36 -4.41,0.75 -6.62,1.16 c -15.96,4.13 -31.97,8.11 -48.02,11.94 c -2.38,0.59 -1.26,2.43 -0.43,3.81 Z M 57.28,231.97 c 0.18,6.1 9.86,5.54 11.04,2.59 c -0.27,-1.84 -0.7,-6.99 -2.3,-8.12 c -2.98,0.21 -9.3,1.38 -8.74,5.53 Z"/>
  </g>
  <g>
    <path fill="#724d1e" stroke="#724d1e" stroke-width="0.5" d="M 53.1,27.98 c -0.14,1.28 3.85,1.48 4.75,2.13 c -0.67,4.56 3.91,9.01 0.69,12.84 c -3.24,4.47 -3.18,5.06 -8.96,6.24 c -2.36,-0.64 -4.71,-1.34 -7.05,-2.09 c -1.35,-0.07 -2.1,0.55 -2.25,1.85 c -0.29,1.08 -0.67,2.11 -1.15,3.11 c 0.25,-2.34 -0.82,-2.9 -2.36,-4.3 c 0.47,-2.02 3.77,-2.5 1.52,-4.7 c -2.9,-8.26 5.81,-18.56 14.81,-15.08 Z"/>
  </g>
  <g>
    <path fill="#326129" d="M 70.87,237.96 c 0.37,0.62 0.94,0.94 1.68,0.95 c 2.86,-0.27 9.2,0.92 11.52,-0.04 c 39.48,-0.13 78.97,-0.19 118.47,-0.18 c 7.19,-0.01 14.36,0.23 21.52,0.7 c -0.07,1.23 -0.74,1.86 -2.03,1.89 c -50.51,0.01 -101.02,0.04 -151.53,0.1 c -0.87,0 -1.72,-0.16 -2.53,-0.47 c -1.82,-2.45 0.72,-3.44 2.9,-2.95 Z"/>
  </g>
  <g>
    <path fill="#205f22" d="M 239.2,53.72 c 0.46,0.33 0.87,0.73 1.22,1.18 c -0.93,1.39 -4.21,6.14 -4.1,7.58 c -0.08,33.02 -0.07,66.04 0.04,99.06 c 0.1,6.55 -0.06,13.09 -0.46,19.62 c -0.63,0.21 -1.27,0.43 -1.9,0.65 c -0.26,-0.74 -0.38,-1.49 -0.35,-2.27 c 0.01,-38.68 0.02,-77.37 0.03,-116.05 c 0.21,-4.06 2.18,-7.49 5.52,-9.77 Z"/>
  </g>
  <g>
    <path fill="#276024" d="M 114.92,227.07 c 1.85,0.05 3.69,-0.1 5.52,-0.46 c 30.68,0.02 61.36,0.06 92.04,0.11 c 5.76,-0.18 9.39,3.71 13.11,7.34 c 0.66,1.51 1.32,3.01 1.97,4.52 c -0.87,1.09 -1.38,-1.3 -2.16,-1.52 c -0.98,-1.16 -2.12,-2.12 -3.39,-2.89 c -3.12,-4.17 -6.53,-4.51 -11.48,-4.85 c -30.66,-0.06 -61.33,-0.07 -92,-0.04 c -0.84,0.03 -1.65,0.18 -2.44,0.47 c -3.71,-0.29 -7.42,-0.66 -11.13,-1.11 c 2.51,-0.6 5.04,-1.15 7.57,-1.65 c 0.8,0.01 1.6,0.04 2.39,0.08 Z"/>
  </g>
  <g>
    <path fill="#2b5e24" d="M 248.3,192.98 c -0.06,6.84 -0.04,13.69 0.05,20.53 c 0.05,0.93 0.22,1.84 0.5,2.72 c -0.35,0 -0.64,0.14 -0.86,0.43 c -0.19,1.39 -0.52,2.75 -0.98,4.07 c -0.04,0.66 0.16,1.23 0.61,1.73 c -0.51,0.3 -1.02,0.29 -1.54,-0.04 c -1.9,-1.46 -3.93,-2.73 -6.08,-3.82 c -8.98,-8.28 -5.82,-12.55 -6.89,-23.24 c 0.8,-0.76 1.74,-1.13 2.84,-1.11 c 0.21,1.21 0.34,2.43 0.37,3.66 c 0.13,5.49 -1.55,11.06 2.75,15.34 c 1.08,2.48 2.77,4.44 5.05,5.88 c 1.23,1.96 2.29,-0.2 2.15,-1.61 c -0.12,-8.5 -0.26,-16.99 -0.42,-25.48 c 0.05,-0.99 0.52,-1.58 1.42,-1.76 c 0.46,0.84 0.8,1.74 1.03,2.7 Z"/>
  </g>
  <g>
    <path fill="#595f27" d="M 248.85,216.23 c 0.91,0.72 1.02,1.56 0.34,2.5 c -0.49,1.15 -0.37,2.24 0.34,3.28 c -0.82,2.4 -2.63,2.32 -4.8,1.85 c -2.42,-2.59 -8.75,-3.05 -11.32,-0.91 c -4.57,5.38 -7.63,7.32 -3.57,14.7 c 0.55,2.17 -0.14,3.86 -2.06,5.08 c -0.97,-0.58 -1.99,-0.72 -3.08,-0.4 c -0.29,0.19 -0.53,0.44 -0.72,0.74 c -0.62,0.03 -1.24,0.07 -1.87,0.11 c -0.1,-0.37 -0.21,-0.74 -0.31,-1.11 c 0.08,-0.26 0.15,-0.53 0.23,-0.79 c 1.29,-0.03 1.96,-0.66 2.03,-1.89 c 1.05,-0.41 1.5,-1.19 1.34,-2.33 c 0.78,0.22 1.29,2.61 2.16,1.52 c -0.65,-1.51 -1.31,-3.01 -1.97,-4.52 c 0.6,-1.52 0.67,-3.06 0.21,-4.62 c 0.94,-0.94 1.54,-2.07 1.81,-3.39 c 2.5,-2.94 2.86,-4.49 6.62,-6.37 c 1.93,-0.33 3.85,-0.69 5.77,-1.08 c 2.15,1.09 4.18,2.36 6.08,3.82 c 0.52,0.33 1.03,0.34 1.54,0.04 c -0.45,-0.5 -0.65,-1.07 -0.61,-1.73 c 0.46,-1.32 0.79,-2.68 0.98,-4.07 c 0.22,-0.29 0.51,-0.43 0.86,-0.43 Z"/>
  </g>
  <g>
    <path fill="#575c26" d="M 64.02,28.04 c 0.63,0.4 1.27,0.79 1.9,1.18 c -1.95,0.67 -3.94,1.16 -5.97,1.46 c -0.43,1.33 -0.13,2.46 0.9,3.41 c 0.3,1.05 0.78,1.99 1.46,2.85 c -0.14,1.56 -0.2,3.12 -0.17,4.69 c -3.48,5.41 -3.1,7.04 -9.34,9.67 c -1.57,0.35 -3.15,0.56 -4.75,0.65 c -1.6,-1.29 -3.28,-2.46 -5.05,-3.52 c -0.91,0.06 -1.82,0.23 -2.72,0.52 c 0.15,-1.3 0.9,-1.92 2.25,-1.85 c 2.34,0.75 4.69,1.45 7.05,2.09 c 5.78,-1.18 5.72,-1.77 8.96,-6.24 c 3.22,-3.83 -1.36,-8.28 -0.69,-12.84 c 0.93,-0.36 1.69,-0.95 2.27,-1.76 c 1.39,1.09 2.69,0.99 3.9,-0.31 Z"/>
  </g>
  <g>
    <path fill="#415e25" d="M 48.05,51.95 c -0.05,0.35 -0.11,0.69 -0.17,1.03 c -0.82,0.36 -2.8,-1.35 -2.88,-0.11 c -2.71,-1.31 -2.99,-3.07 -2.95,1.73 c 0.02,53.3 -0.01,106.6 -0.11,159.9 c -0.03,0.88 0.09,1.72 0.37,2.55 c -0.51,1.93 0.13,2.48 1.92,1.65 c 0.53,-0.49 1.04,-1 1.53,-1.54 c 0.55,0.58 1.23,0.9 2.03,0.95 c 0.12,0.35 0.23,0.7 0.35,1.04 c -1.98,1.66 -4.81,2.07 -6.11,4.52 c -1.44,0.8 -3.01,-1.33 -4.84,-1 c 1.43,-0.97 1.96,-2.27 1.57,-3.89 c -0.03,-0.85 -0.01,-1.69 0.04,-2.53 c 0.45,-1.24 0.64,-2.52 0.59,-3.84 c -0.09,-51.31 -0.12,-102.63 -0.08,-153.95 c 0.05,-1.2 -0.12,-2.37 -0.5,-3.51 c -0.68,-1.06 -0.57,-2.03 0.32,-2.89 c 0.48,-1 0.86,-2.03 1.15,-3.11 c 0.9,-0.29 1.81,-0.46 2.72,-0.52 c 1.77,1.06 3.45,2.23 5.05,3.52 Z"/>
  </g>
  <g>
    <path fill="#403c4c" d="M 103.8,118.03 c -2.81,6.2 -4.18,14.39 0.11,20.24 c 2.7,7.72 10.65,11.09 18.38,11.13 c 0.49,0.31 0.72,0.76 0.7,1.36 c -0.6,0.35 -1.05,0.84 -1.35,1.47 c -9.96,-0.42 -16.48,-4.74 -21.35,-13.1 c -1.76,-5.01 -2.29,-10.16 -1.61,-15.42 c 0.4,-1.12 1,-4.5 2.45,-4.68 c 0.78,-0.61 1.67,-0.95 2.67,-1 Z"/>
  </g>
  <g>
    <path fill="#115b27" d="M 182.31,116.05 c 2.17,-0.18 2.46,2.11 4.38,2.72 c 0.45,0.13 0.9,0.26 1.34,0.39 c -0.23,1.24 0.02,2.4 0.73,3.48 c 0.04,2.31 0.23,4.61 0.56,6.9 c 0.36,2.09 -1.01,4.75 -0.2,6.59 c -1.11,0.09 -2.6,5.76 -3.69,6.76 c -5.03,5.44 -11.47,9.98 -19.2,9.3 c -0.49,-0.7 -0.91,-1.44 -1.25,-2.22 c 11.41,-1.3 19.72,-6.48 21.71,-18.58 c 0.94,-2.87 -0.87,-11.96 -3.39,-13.37 c -0.41,-0.61 -0.74,-1.27 -0.99,-1.97 Z"/>
  </g>
  <g>
    <path fill="#205761" d="M 164.22,83.07 c 0.23,1.34 0.09,2.64 -0.41,3.9 c -0.24,0.03 -0.48,0.07 -0.72,0.1 c -4.84,-16.08 -26.84,-18.75 -35.99,-4.46 c -3.88,7.43 -4.68,18.67 2.88,24.17 c -2.28,-0.55 -4.56,-1.1 -6.85,-1.66 c -0.29,-1.89 -0.73,-3.75 -1.31,-5.58 c 0.08,-4.57 0.16,-9.13 0.25,-13.69 c 0.34,-0.03 0.61,-0.19 0.81,-0.47 c 6.91,-18.59 33.19,-20.32 41.34,-2.31 Z"/>
  </g>
  <g>
    <path fill="#236223" d="M 60.85,34.09 c 0.73,-0.05 1.45,-0.11 2.17,-0.19 c 1.14,1.47 2.41,2.83 3.8,4.06 c 4.5,4.97 12.7,3.11 18.7,3.76 c 42.27,-0.67 84.5,-0.06 126.75,-0.18 c 3.4,-0.05 6.36,-1.21 8.88,-3.48 c 1.23,-1.07 2.45,-2.16 3.65,-3.27 c -0.02,1.32 -0.28,2.6 -0.78,3.84 c -3.64,3.88 -6,5.33 -11.53,5.67 c -45.68,-0.03 -91.35,-0.03 -137.03,-0.01 c -6.68,-0.04 -8.83,-3.24 -13.15,-7.35 c -0.68,-0.86 -1.16,-1.8 -1.46,-2.85 Z M 47.88,52.98 c 3.74,2.15 6.84,8.1 6.35,12.52 c 0.03,40.33 0.07,80.66 0.11,120.99 c -1.21,10 3.65,25.35 -6.55,31.62 c -0.8,-0.05 -1.48,-0.37 -2.03,-0.95 c 1.19,-1.2 2.3,-2.48 3.32,-3.83 c 1.85,-2.28 2.76,-4.88 2.72,-7.82 c -0.15,-46.69 -0.16,-93.38 -0.03,-140.07 c 0.19,-4.39 -2.17,-7.71 -5.16,-10.65 c -0.53,-0.62 -1.07,-1.26 -1.61,-1.92 c 0.08,-1.24 2.06,0.47 2.88,0.11 Z"/>
  </g>
  <g>
    <path fill="#814d28" d="M 107.86,258.71 c 10.75,-0.05 21.5,-0.01 32.25,0.1 c -0.57,0.97 -1.43,1.38 -2.58,1.23 c -9.33,-0.1 -18.67,-0.12 -28,-0.06 c -0.81,-0.09 -1.36,-0.52 -1.67,-1.27 Z M 142.9,258.8 c 13.07,-0.1 26.15,-0.14 39.23,-0.09 c -0.58,0.98 -1.44,1.4 -2.59,1.27 c -11.7,-0.04 -23.39,-0.05 -35.09,-0.02 c -0.77,-0.06 -1.28,-0.44 -1.55,-1.16 Z"/>
  </g>
  <g>
    <path fill="#433d1e" d="M 167.24,104.12 c 1.15,0.64 2.34,1.18 3.58,1.62 c 2.61,-0.04 5.01,1.89 7.47,2.62 c 2.78,2.12 5.38,4.47 7.79,7.03 c 0.72,0.42 1.38,0.92 1.97,1.51 c -0.4,0.67 -0.85,1.29 -1.36,1.87 c -1.92,-0.61 -2.21,-2.9 -4.38,-2.72 c -3.8,-5.18 -7.62,-6.42 -13.33,-8.44 c -1.12,-0.31 -2.11,-0.81 -2.99,-1.51 c 0.59,-0.56 1.01,-1.22 1.25,-1.98 Z"/>
  </g>
  <g>
    <path fill="#1c5341" d="M 163.34,101.89 c 1.76,0.47 -0.24,3.39 2.65,4.21 c 0.88,0.7 1.87,1.2 2.99,1.51 c -11.91,1.48 -13.76,0.83 -20.69,11.05 c -2.74,6.58 -3.5,12.37 -1.08,19.19 c -1.08,0.01 -2.15,-0.04 -3.21,-0.16 c -0.25,-0.35 -0.45,-0.72 -0.63,-1.11 c 0.73,-2.84 -0.03,-11.4 -0.02,-14.93 c 0.98,-1.54 1.64,-3.2 1.98,-4.99 c 0.62,-0.39 1.1,-0.9 1.44,-1.54 c 3.83,-4.77 9.64,-8.32 15.29,-10.54 c 0.65,-0.78 1.08,-1.68 1.28,-2.69 Z"/>
  </g>
  <g>
    <path fill="#702815" d="M 210.78,99.93 c -1.88,4.6 -3.92,9.27 -7.85,12.52 c -1.27,0.66 -2.47,1.42 -3.59,2.29 c -3.88,1.11 -7.13,3.06 -11.29,2.16 c -0.59,-0.59 -1.25,-1.09 -1.97,-1.51 c 13.89,-0.55 23.88,-9.42 22.76,-23.89 c -0.4,-3.68 -2.91,-9.07 -5.64,-11.47 c -14.73,-17.14 -42.6,-0.75 -34.03,22.32 c 0.58,1.38 1.76,1.69 1.65,3.39 c -1.24,-0.44 -2.43,-0.98 -3.58,-1.62 c -2.45,-5.65 -1.71,-12.17 -0.91,-18.11 c 1.17,-2.21 2.39,-4.39 3.67,-6.55 c 6.34,-7.81 15.23,-10.39 24.97,-7.93 c 1.6,0.79 3.23,1.46 4.92,2.02 c 8.95,5.32 13.09,16.32 10.89,26.38 Z"/>
  </g>
  <g>
    <path fill="#422f26" d="M 139.79,97.88 c 1.97,-2.21 3.94,-4.41 5.92,-6.58 c -0.15,-1.68 -1.02,-2.27 -2.62,-1.77 c -0.85,1.03 -3.35,2.88 -3.13,-0.04 c 1.23,-4.47 9.8,-3.78 8.03,2.96 c -1.15,1.44 -2.37,2.84 -3.63,4.18 c 0.03,0.39 0.23,0.65 0.6,0.8 c 1.11,0.18 2.23,0.35 3.34,0.53 c 0.58,0.98 0.28,1.56 -0.9,1.75 c -1.96,0.03 -3.91,0.11 -5.87,0.24 c -1.24,-0.12 -1.82,-0.81 -1.74,-2.07 Z"/>
  </g>
  <g>
    <path fill="#412f25" d="M 161.12,129.91 c 1.48,-2.56 3.14,-5.01 4.97,-7.34 c 4.21,-3.51 2.85,4.83 3.26,6.69 c 2.23,1.78 2.13,1.62 -0.01,3.46 c -0.25,0.84 -0.31,2.34 -1.59,2.06 c -0.54,-0.78 -1.03,-1.6 -1.46,-2.45 c -1.95,-0.15 -5.66,0.74 -5.17,-2.42 Z M 164.28,129.07 c 0.15,0.94 1.9,0.85 2.41,0.26 c 0.77,-3.43 -2.01,-2.61 -2.41,-0.26 Z"/>
  </g>
  <g>
    <path fill="#60312d" d="M 117.17,105.67 c 1.28,-0.06 2.54,0.05 3.79,0.33 c -0.27,0.56 -0.54,1.11 -0.82,1.66 c -8.37,1.27 -11.15,3.88 -16.34,10.37 c -1,0.05 -1.89,0.39 -2.67,1 c -0.07,-0.33 -0.14,-0.67 -0.21,-1.01 c 0.68,-0.9 1.31,-1.83 1.89,-2.78 c 4.06,-5.75 7.77,-7.79 14.36,-9.57 Z"/>
  </g>
  <g>
    <path fill="#433b66" d="M 123.13,105.12 c 2.29,0.56 4.57,1.11 6.85,1.66 c 1.11,0.32 2.17,0.78 3.16,1.38 c 3.04,2.03 5.88,4.3 8.53,6.81 c 1.65,1.18 3.27,0.15 5.1,0.15 c -0.34,0.64 -0.82,1.15 -1.44,1.54 c -0.34,1.79 -1,3.45 -1.98,4.99 c -0.01,3.53 0.75,12.09 0.02,14.93 c 0.18,0.39 0.38,0.76 0.63,1.11 c -0.95,-0.02 -1.86,0.15 -2.74,0.49 c 0.27,-2.56 0.54,-5.13 0.79,-7.72 c 0.24,-4.39 -1.15,-7.51 -2.49,-11.54 c -0.32,-0.74 -0.8,-1.35 -1.44,-1.83 c -3.32,-6.97 -11.22,-8.21 -17.98,-9.43 c 0.28,-0.55 0.55,-1.1 0.82,-1.66 c 0.73,-0.29 1.45,-0.59 2.17,-0.88 Z"/>
  </g>
  <g>
    <path fill="#47342b" d="M 117.21,124.74 c 1.28,-2.58 3.32,-3.49 6.12,-2.72 c 3.07,1.23 2.38,3.73 1.97,6.29 c 1.67,3.91 0.4,6.12 -3.81,6.63 c -2.03,0.13 -3.44,-0.72 -4.21,-2.55 c -0.11,-0.46 0.04,-0.81 0.43,-1.05 c 1.06,0.31 2.07,0.76 3.02,1.36 c 1.56,0.09 2.33,-0.61 2.32,-2.12 c -0.58,-0.56 -1.23,-1.01 -1.97,-1.34 c -1.35,-2.49 3.31,-1.96 1.16,-4.98 c -1.26,0.36 -2.5,0.82 -3.7,1.36 c -0.53,-0.17 -0.97,-0.46 -1.33,-0.88 Z"/>
  </g>
  <g>
    <path fill="#535458" d="M 164.22,83.07 c 0.35,0.03 0.7,0.06 1.04,0.09 c -0.16,1.14 0.19,2.09 1.07,2.85 c -0.8,5.94 -1.54,12.46 0.91,18.11 c -0.24,0.76 -0.66,1.42 -1.25,1.98 c -2.89,-0.82 -0.89,-3.74 -2.65,-4.21 c 0.56,-4.96 0.71,-9.93 0.47,-14.92 c 0.5,-1.26 0.64,-2.56 0.41,-3.9 Z"/>
  </g>
  <g>
    <path fill="#5b5e27" d="M 48.14,219.15 c 1.29,-0.07 2.58,-0.05 3.87,0.07 c 1.64,1.12 3.27,2.25 4.89,3.4 c 1.44,1.46 1.77,2.44 4.1,2.5 c -1.12,0.7 -2.35,1.04 -3.71,1.01 c -2.02,-2.49 -5.31,-4.79 -8.73,-4.17 c -2.41,0.19 -3.97,2.77 -6.53,1.71 c 1.3,-2.45 4.13,-2.86 6.11,-4.52 Z"/>
  </g>
  <g>
    <path fill="#482e27" d="M 183.67,97 c 0.14,-0.44 0.44,-0.72 0.88,-0.85 c 0.97,0.38 1.95,0.75 2.94,1.11 c 1.81,0.11 2.47,-0.67 2,-2.34 c -0.95,-0.34 -1.8,-0.84 -2.56,-1.49 c -0.01,-2.27 3.02,-1.07 1.88,-3.74 c -1.26,-1.85 -5.04,3.12 -4.77,-0.1 c 0.41,-1.77 1.55,-2.67 3.41,-2.68 c 2.89,-0.44 4.45,0.76 4.69,3.6 c -0.3,0.92 -0.56,1.86 -0.78,2.8 c 2.2,3.02 1.51,5.17 -2.07,6.46 c -2.81,0.84 -4.68,-0.08 -5.62,-2.77 Z"/>
  </g>
  <g>
    <path fill="#4a3221" d="M 96.38,90.26 c 1.02,-1.01 3.92,-4.68 5.28,-2.57 c 0.03,2.15 0.8,10.56 -0.59,11.81 c -0.94,0.3 -1.51,-0.04 -1.7,-1.02 c 0.1,-2.33 -0.06,-4.63 -0.47,-6.91 c -0.68,-0.36 -1.4,-0.58 -2.18,-0.66 c -0.27,-0.14 -0.38,-0.36 -0.34,-0.65 Z"/>
  </g>
  <g>
    <path fill="#7e4d25" d="M 65.66,257.97 c 0.56,0.48 1.22,0.72 1.97,0.73 c 10.49,-0.02 20.98,0 31.47,0.05 c -0.58,0.98 -1.45,1.4 -2.62,1.24 c -10.63,0 -21.27,0 -31.9,0.01 c -0.75,0.06 -1.25,-0.26 -1.49,-0.94 c 0.58,-1.04 1.44,-1.41 2.57,-1.09 Z"/>
  </g>
  <g>
    <path fill="#4a3c33" d="M 139.06,163.99 c 0.22,-4.57 4.34,4 7.96,-1.37 c 0.58,-0.45 1.13,-0.45 1.65,0.01 c 0.17,4.87 -7.68,6.09 -9.61,1.36 Z"/>
  </g>
  <g>
    <path fill="#513f2e" d="M 151.22,158.99 c -0.65,-4.41 6.53,-3.59 4.68,1.35 c -1.55,1.6 -4.52,0.97 -4.68,-1.35 Z"/>
  </g>
  <g>
    <path fill="#513c32" d="M 131.32,158.77 c 0.2,-4.11 5.64,-3.26 4.89,0.78 c -0.82,2.68 -4.35,1.71 -4.89,-0.78 Z"/>
  </g>
</svg>